<svg xmlns="http://www.w3.org/2000/svg" xmlns:xlink="http://www.w3.org/1999/xlink" viewBox="0 0 177.43 190.33"><defs><style>.cls-1,.cls-12,.cls-7{fill:none;}.cls-2{fill:#f8dede;}.cls-3{fill:#f5cdcd;}.cls-4{fill:#f3be61;opacity:0.1;}.cls-10,.cls-16,.cls-5{fill:#fff;}.cls-10,.cls-11,.cls-12,.cls-13,.cls-14,.cls-15,.cls-16,.cls-5,.cls-6,.cls-7,.cls-8{stroke:#7899a8;stroke-linejoin:round;}.cls-5,.cls-6,.cls-7,.cls-8{stroke-width:0.5px;}.cls-11,.cls-6{fill:url(#Motivo_nuevo_2);}.cls-13,.cls-14,.cls-8{fill:#dbebe7;}.cls-9{clip-path:url(#clip-path);}.cls-10,.cls-11,.cls-12,.cls-13{stroke-width:0.75px;}.cls-14{stroke-width:1.5px;}.cls-15{fill:#7899a8;}.cls-15,.cls-16{stroke-width:1.27px;}</style><pattern id="Motivo_nuevo_2" data-name="Motivo nuevo 2" width="49" height="36" patternTransform="translate(-503.48 -194.94)" patternUnits="userSpaceOnUse" viewBox="0 0 49 36"><rect class="cls-1" width="49" height="36"/><rect class="cls-2" width="49" height="36"/><circle class="cls-3" cx="6" cy="31" r="1"/><circle class="cls-3" cx="49.5" cy="19" r="1"/><circle class="cls-3" cx="14" cy="25" r="1"/><circle class="cls-3" cx="42.5" cy="25" r="1"/><circle class="cls-3" cx="26" cy="6" r="1"/><circle class="cls-3" cx="21.5" cy="35" r="1"/><circle class="cls-3" cx="7" cy="10" r="1"/><circle class="cls-3" cx="12.5" cy="9" r="1"/><circle class="cls-3" cx="19" cy="22" r="1"/><circle class="cls-3" cx="36.5" cy="12" r="1"/><circle class="cls-3" cx="39.5" cy="7" r="1"/><circle class="cls-3" cx="0.5" cy="19" r="1"/></pattern><clipPath id="clip-path" transform="translate(0 38.76)"><circle class="cls-1" cx="97.2" cy="65.5" r="43.92"/></clipPath></defs><g id="Capa_2" data-name="Capa 2"><g id="vegetacion"><path class="cls-4" d="M71.25,110.67c1.43-.18,2.87-.35,4.3-.51L91,108.4a71.38,71.38,0,0,1,17.77.36c6.49.86,14.43,1.48,20.5-1.63A23.82,23.82,0,0,0,137.8,99c3-4.43,5.18-9.76,4.87-15.24A17.38,17.38,0,0,0,137.2,72c-5.09-4.61-12.44-5.24-17.66-9.66-4.17-3.53-6.46-9-9.18-13.92-7.2-13.07-19.81-24-33.8-23.26-11.85.62-23.06,9.37-34.7,6.91C37.72,31.2,33.94,29,30,27.39c-6.48-2.55-14.19-3.08-19.86,1.17-4.54,3.41-7,9.26-8.47,15.05C-.19,50.85-.82,58.72,1.5,65.8c1.75,5.35,5.07,10,6.83,15.3A28.27,28.27,0,0,1,9.45,93.76c-.35,2.49-1,4.93-1,7.44.11,7,5.79,12.56,11.74,15.31A33,33,0,0,0,40.47,119c5.87-1.17,11.36-3.92,17.11-5.66A81.69,81.69,0,0,1,71.25,110.67Z" transform="translate(0 38.76)"/><rect class="cls-5" x="34.46" y="47.06" width="48.64" height="115.77"/><rect class="cls-6" x="34.46" y="147.79" width="48.64" height="15.04"/><rect class="cls-7" x="38.32" y="126.15" width="7.9" height="14.51"/><rect class="cls-7" x="49.33" y="126.15" width="7.9" height="14.51"/><rect class="cls-7" x="60.34" y="126.15" width="7.9" height="14.51"/><rect class="cls-7" x="71.35" y="126.15" width="7.9" height="14.51"/><rect class="cls-7" x="38.32" y="106.17" width="7.9" height="14.51"/><rect class="cls-7" x="49.33" y="106.17" width="7.9" height="14.51"/><rect class="cls-7" x="60.34" y="106.17" width="7.9" height="14.51"/><rect class="cls-7" x="71.35" y="106.17" width="7.9" height="14.51"/><rect class="cls-7" x="38.32" y="86.19" width="7.9" height="14.51"/><rect class="cls-7" x="49.33" y="86.19" width="7.9" height="14.51"/><rect class="cls-7" x="60.34" y="86.19" width="7.9" height="14.51"/><rect class="cls-7" x="71.35" y="86.19" width="7.9" height="14.51"/><rect class="cls-7" x="38.32" y="66.22" width="7.9" height="14.51"/><rect class="cls-7" x="49.33" y="66.22" width="7.9" height="14.51"/><rect class="cls-7" x="60.34" y="66.22" width="7.9" height="14.51"/><rect class="cls-7" x="71.35" y="66.22" width="7.9" height="14.51"/><rect class="cls-8" x="31.58" y="53.64" width="54.4" height="3.35"/><g class="cls-9"><rect class="cls-10" x="31.52" y="0.38" width="79.65" height="189.58"/><rect class="cls-11" x="31.52" y="165.33" width="79.65" height="24.62"/><rect class="cls-12" x="37.84" y="129.88" width="12.94" height="23.75"/><rect class="cls-12" x="55.87" y="129.88" width="12.94" height="23.75"/><rect class="cls-12" x="73.89" y="129.88" width="12.94" height="23.75"/><rect class="cls-12" x="91.92" y="129.88" width="12.94" height="23.75"/><rect class="cls-12" x="37.84" y="97.17" width="12.94" height="23.75"/><rect class="cls-12" x="55.87" y="97.17" width="12.94" height="23.75"/><rect class="cls-12" x="73.89" y="97.17" width="12.94" height="23.75"/><rect class="cls-12" x="91.92" y="97.17" width="12.94" height="23.75"/><rect class="cls-12" x="37.84" y="64.46" width="12.94" height="23.75"/><rect class="cls-12" x="55.87" y="64.46" width="12.94" height="23.75"/><rect class="cls-12" x="73.89" y="64.46" width="12.94" height="23.75"/><rect class="cls-12" x="91.92" y="64.46" width="12.94" height="23.75"/><rect class="cls-12" x="37.84" y="31.75" width="12.94" height="23.75"/><rect class="cls-12" x="55.87" y="31.75" width="12.94" height="23.75"/><rect class="cls-12" x="73.89" y="31.75" width="12.94" height="23.75"/><rect class="cls-12" x="91.92" y="31.75" width="12.94" height="23.75"/><rect class="cls-13" x="26.8" y="11.16" width="89.09" height="5.49"/></g><rect class="cls-7" x="42.27" y="39.01" width="33.98" height="8.05"/><rect class="cls-14" x="149.53" y="101.98" width="14.72" height="48.95" rx="6.59" transform="translate(-43.47 186.74) rotate(-45)"/><rect class="cls-15" x="132.31" y="96.18" width="3.63" height="15.27" transform="translate(-34.12 164.01) rotate(-45)"/><path class="cls-16" d="M63.17,32.74a47.27,47.27,0,1,0,66.86,0A47.27,47.27,0,0,0,63.17,32.74Zm63.15,63.14a42,42,0,1,1,0-59.44A42,42,0,0,1,126.32,95.88Z" transform="translate(0 38.76)"/></g></g></svg>