<svg xmlns="http://www.w3.org/2000/svg" xmlns:xlink="http://www.w3.org/1999/xlink" viewBox="0 0 214.52 161.72"><defs><style>.cls-1,.cls-10,.cls-17,.cls-19,.cls-3,.cls-8{fill:none;}.cls-18,.cls-2,.cls-9{fill:#f8dede;}.cls-3{stroke:#f5cdcd;stroke-miterlimit:10;}.cls-4{isolation:isolate;}.cls-5{fill:#69ab99;opacity:0.1;}.cls-10,.cls-13,.cls-15,.cls-16,.cls-17,.cls-18,.cls-19,.cls-20,.cls-21,.cls-22,.cls-23,.cls-6,.cls-7,.cls-8,.cls-9{stroke:#7899a8;stroke-linejoin:round;}.cls-10,.cls-13,.cls-6,.cls-7,.cls-8,.cls-9{stroke-width:0.5px;}.cls-15,.cls-6{fill:url(#techos);}.cls-16,.cls-23,.cls-7{fill:#fff;}.cls-10,.cls-19{stroke-linecap:round;}.cls-11{fill:#e4e8f2;}.cls-12{fill:#dcdef2;mix-blend-mode:multiply;}.cls-13,.cls-20,.cls-21{fill:#dbebe7;}.cls-14{clip-path:url(#clip-path);}.cls-15,.cls-16,.cls-17,.cls-18,.cls-19,.cls-20{stroke-width:0.75px;}.cls-21{stroke-width:1.5px;}.cls-22{fill:#7899a8;}.cls-22,.cls-23{stroke-width:1.27px;}</style><pattern id="techos" data-name="techos" width="24" height="29" patternTransform="translate(-597.68 172.2)" patternUnits="userSpaceOnUse" viewBox="0 0 24 29"><rect class="cls-1" width="24" height="29"/><rect class="cls-2" x="16" width="8" height="29"/><line class="cls-3" x1="20" x2="20" y2="29"/><rect class="cls-2" x="8" width="8" height="29"/><line class="cls-3" x1="12" x2="12" y2="29"/><rect class="cls-2" width="8" height="29"/><line class="cls-3" x1="4" x2="4" y2="29"/></pattern><clipPath id="clip-path" transform="translate(16.8 26.26)"><circle class="cls-1" cx="117.51" cy="53.74" r="42.65"/></clipPath></defs><g class="cls-4"><g id="Capa_2" data-name="Capa 2"><g id="vegetacion"><path class="cls-5" d="M50.32,70C34.74,72,3.47,71.6,11.86,48.13c4-10.87,19.62-8.79,26.5-16.55,5.06-15.66,6.46-37.73,29.54-30,6.86.57,10.73,5.22,12.36,11.55C91.75,36.61,119.77,9.71,127.55,19s.47,29,13.34,42.55c5,20.51-23.13,3.16-32.53,9.64-4.69,1.84-8.88,5.65-13.92,5.44C71,65.46,79.6,62,50.32,70Z" transform="translate(16.8 26.26)"/><polyline class="cls-6" points="103.68 74.43 114.34 74.43 121.03 81.64 98.38 81.64 98.38 80.09"/><polygon class="cls-7" points="68.53 105.83 32.49 105.83 32.49 69.34 50.51 57.96 68.53 69.34 68.53 105.83"/><rect class="cls-7" x="68.53" y="80.21" width="29.86" height="25.62"/><rect class="cls-7" x="98.38" y="83.18" width="19.05" height="22.65"/><line class="cls-8" x1="114.34" y1="62.33" x2="114.34" y2="74.43"/><polygon class="cls-6" points="99.16 61.05 117.17 61.05 110.48 53.84 41.5 53.84 29.92 68.77 30.95 70.31 50.51 57.96 68.53 69.28 68.53 78.55 105.08 78.55 99.16 61.05"/><rect class="cls-8" x="99.93" y="85.22" width="10.3" height="20.61"/><rect class="cls-9" x="78.48" y="65.66" width="19.6" height="8.24" transform="translate(174.85 7.76) rotate(90)"/><line class="cls-10" x1="103.02" y1="95.02" x2="101.99" y2="95.02"/><rect class="cls-8" x="79.34" y="84.21" width="10.3" height="11.32"/><rect class="cls-8" x="63.05" y="59.5" width="9.27" height="8.24" transform="translate(148.1 22.19) rotate(90)"/><line class="cls-8" x1="84.48" y1="94.76" x2="84.48" y2="85.5"/><rect class="cls-8" x="104.56" y="63.62" width="6.18" height="8.75"/><rect class="cls-8" x="87.5" y="39.68" width="6.69" height="4.12" transform="translate(149.39 -22.85) rotate(90)"/><rect class="cls-8" x="75.73" y="95.53" width="18.02" height="1.8"/><rect class="cls-8" x="42.79" y="84.21" width="14.41" height="11.32"/><rect class="cls-8" x="28.56" y="57.44" width="9.27" height="12.35" transform="translate(113.61 56.68) rotate(90)"/><line class="cls-8" x1="47.94" y1="94.76" x2="47.94" y2="85.5"/><line class="cls-8" x1="52.05" y1="94.76" x2="52.05" y2="85.5"/><rect class="cls-8" x="39.19" y="95.53" width="21.62" height="1.8"/><rect class="cls-7" x="83.46" y="45.6" width="8.24" height="8.24"/><polyline class="cls-8" points="29.92 68.77 50.51 55.38 70.59 68.25 69.56 69.8 68.53 69.28"/><rect class="cls-8" x="98.38" y="81.64" width="23.16" height="1.54"/><polyline class="cls-8" points="99.41 62.08 117.43 62.08 117.43 61.05 99.41 61.05"/><line class="cls-8" x1="32.49" y1="98.37" x2="98.64" y2="98.37"/><rect class="cls-7" x="68.53" y="78.55" width="36.55" height="1.54"/><rect class="cls-11" x="45.81" y="44.31" width="4.63" height="1.27" transform="translate(113.05 116.15) rotate(180)"/><rect class="cls-11" x="47.35" y="46.86" width="3.09" height="1.27" transform="translate(114.59 121.25) rotate(180)"/><rect class="cls-11" x="45.81" y="49.4" width="4.63" height="1.27" transform="translate(113.05 126.34) rotate(180)"/><rect class="cls-11" x="47.35" y="51.95" width="3.09" height="1.27" transform="translate(114.59 131.43) rotate(180)"/><rect class="cls-11" x="45.81" y="54.5" width="4.63" height="1.27" transform="translate(113.05 136.53) rotate(180)"/><rect class="cls-11" x="47.35" y="57.04" width="3.09" height="1.27" transform="translate(114.59 141.62) rotate(180)"/><rect class="cls-11" x="45.81" y="59.59" width="4.63" height="1.27" transform="translate(113.05 146.71) rotate(180)"/><rect class="cls-11" x="47.35" y="62.14" width="3.09" height="1.27" transform="translate(114.59 151.81) rotate(180)"/><rect class="cls-11" x="45.81" y="64.68" width="4.63" height="1.27" transform="translate(113.05 156.9) rotate(180)"/><rect class="cls-11" x="47.35" y="67.23" width="3.09" height="1.27" transform="translate(114.59 161.99) rotate(180)"/><rect class="cls-12" x="68.53" y="80.09" width="29.86" height="1.8"/><rect class="cls-12" x="39.19" y="97.08" width="21.88" height="1.8"/><rect class="cls-12" x="75.73" y="97.08" width="18.27" height="1.8"/><polygon class="cls-12" points="114.34 63.36 100.19 63.36 99.67 62.33 114.34 62.08 114.34 63.36"/><polygon class="cls-12" points="117.17 83.44 104.3 83.44 104.3 83.18 98.64 83.18 98.64 83.69 98.38 83.69 98.38 89.61 98.64 89.61 98.64 106.09 104.3 106.09 104.3 89.61 117.17 89.61 117.17 83.44"/><path class="cls-13" d="M51.73,73.41v6.16H63a1.54,1.54,0,0,0-1.45-1,1.56,1.56,0,0,0-.53.1s0-.07,0-.1a2,2,0,0,0-3.67-1.26,2.31,2.31,0,0,0-1.55-.78A3.86,3.86,0,0,0,52,73.4Z" transform="translate(16.8 26.26)"/><path class="cls-13" d="M116.07,78.8a2.47,2.47,0,0,1-.11.77H100.63V70.41a2.92,2.92,0,0,1,1.94.15,4.68,4.68,0,0,1,3.21-1.28,4.63,4.63,0,0,1,4.61,4.22,2.82,2.82,0,0,1,2.07,2.58,2.88,2.88,0,0,1,.78-.11A2.82,2.82,0,0,1,116.07,78.8Z" transform="translate(16.8 26.26)"/><path class="cls-13" d="M.25,78.8a2.81,2.81,0,0,0,.11.77H15.69V70.41a2.76,2.76,0,0,0-.77-.11,2.82,2.82,0,0,0-1.17.26A4.64,4.64,0,0,0,5.93,73.5a2.84,2.84,0,0,0-2.07,2.58A2.88,2.88,0,0,0,3.08,76,2.83,2.83,0,0,0,.25,78.8Z" transform="translate(16.8 26.26)"/><g class="cls-14"><path class="cls-5" d="M39.64,72.8c-22,2.84-66.33,2.33-54.45-30.9C-9.15,26.5,13,29.45,22.71,18.46,29.89-3.72,31.87-35,64.54-24c9.72.8,15.19,7.39,17.5,16.36,16.27,33.21,56-4.88,67,8.25s.66,41,18.88,60.26c7.13,29-32.74,4.46-46,13.64-6.65,2.61-12.59,8-19.71,7.7C68.93,66.44,81.12,61.58,39.64,72.8Z" transform="translate(16.8 26.26)"/><polyline class="cls-15" points="135.38 66.5 150.47 66.5 159.94 76.71 127.87 76.71 127.87 74.52"/><polygon class="cls-16" points="85.6 110.97 34.58 110.97 34.58 59.3 60.09 43.18 85.6 59.3 85.6 110.97"/><rect class="cls-16" x="85.6" y="74.69" width="42.28" height="36.27"/><rect class="cls-16" x="127.87" y="78.89" width="26.97" height="32.07"/><line class="cls-17" x1="150.47" y1="49.37" x2="150.47" y2="66.5"/><polygon class="cls-15" points="128.97 47.55 154.48 47.55 145 37.35 47.33 37.35 30.93 58.48 32.39 60.67 60.09 43.18 85.6 59.21 85.6 72.33 137.35 72.33 128.97 47.55"/><rect class="cls-17" x="130.06" y="81.78" width="14.58" height="29.19"/><rect class="cls-18" x="106.67" y="65" width="27.75" height="11.66" transform="translate(208.18 -23.45) rotate(90)"/><line class="cls-19" x1="134.43" y1="95.66" x2="132.97" y2="95.66"/><rect class="cls-17" x="100.9" y="80.35" width="14.58" height="16.04"/><rect class="cls-17" x="84.83" y="56.28" width="13.12" height="11.66" transform="translate(170.31 -3.02) rotate(90)"/><line class="cls-17" x1="108.19" y1="95.29" x2="108.19" y2="82.17"/><rect class="cls-17" x="136.62" y="51.2" width="8.75" height="12.39"/><rect class="cls-17" x="119.45" y="28.22" width="9.48" height="5.83" transform="translate(172.13 -66.8) rotate(90)"/><rect class="cls-17" x="95.8" y="96.39" width="25.51" height="2.55"/><rect class="cls-17" x="49.15" y="80.35" width="20.41" height="16.04"/><rect class="cls-17" x="36" y="53.37" width="13.12" height="17.49" transform="translate(121.47 45.81) rotate(90)"/><line class="cls-17" x1="56.44" y1="95.29" x2="56.44" y2="82.17"/><line class="cls-17" x1="62.27" y1="95.29" x2="62.27" y2="82.17"/><rect class="cls-17" x="44.05" y="96.39" width="30.61" height="2.55"/><rect class="cls-16" x="106.73" y="25.69" width="11.66" height="11.66"/><polyline class="cls-17" points="30.93 58.48 60.09 39.53 88.51 57.76 87.06 59.94 85.6 59.21"/><rect class="cls-17" x="127.87" y="76.71" width="32.8" height="2.19"/><polyline class="cls-17" points="129.33 49.01 154.84 49.01 154.84 47.55 129.33 47.55"/><line class="cls-17" x1="34.57" y1="100.4" x2="128.24" y2="100.4"/><rect class="cls-16" x="85.6" y="72.33" width="51.75" height="2.19"/><rect class="cls-11" x="60.41" y="34.78" width="6.56" height="1.8" transform="translate(144.19 97.62) rotate(180)"/><rect class="cls-11" x="62.6" y="38.39" width="4.37" height="1.8" transform="translate(146.37 104.83) rotate(180)"/><rect class="cls-11" x="60.41" y="41.99" width="6.56" height="1.8" transform="translate(144.19 112.04) rotate(180)"/><rect class="cls-11" x="62.6" y="45.6" width="4.37" height="1.8" transform="translate(146.37 119.26) rotate(180)"/><rect class="cls-11" x="60.41" y="49.2" width="6.56" height="1.8" transform="translate(144.19 126.47) rotate(180)"/><rect class="cls-11" x="62.6" y="52.81" width="4.37" height="1.8" transform="translate(146.37 133.68) rotate(180)"/><rect class="cls-11" x="60.41" y="56.42" width="6.56" height="1.8" transform="translate(144.19 140.89) rotate(180)"/><rect class="cls-11" x="62.6" y="60.02" width="4.37" height="1.8" transform="translate(146.37 148.1) rotate(180)"/><rect class="cls-11" x="60.41" y="63.63" width="6.56" height="1.8" transform="translate(144.19 155.32) rotate(180)"/><rect class="cls-11" x="62.6" y="67.23" width="4.37" height="1.8" transform="translate(146.37 162.53) rotate(180)"/><rect class="cls-12" x="85.6" y="74.52" width="42.28" height="2.55"/><rect class="cls-12" x="44.05" y="98.57" width="30.98" height="2.55"/><rect class="cls-12" x="95.8" y="98.57" width="25.88" height="2.55"/><polygon class="cls-12" points="150.47 50.83 130.42 50.83 129.69 49.37 150.47 49.01 150.47 50.83"/><polygon class="cls-12" points="154.48 79.26 136.25 79.26 136.25 78.89 128.24 78.89 128.24 79.62 127.87 79.62 127.87 88 128.24 88 128.24 111.33 136.25 111.33 136.25 88 154.48 88 154.48 79.26"/><path class="cls-20" d="M68.79,76v8.73H84.7a2.17,2.17,0,0,0-2.06-1.46,2,2,0,0,0-.74.14s0-.1,0-.14a2.9,2.9,0,0,0-5.19-1.79,3.27,3.27,0,0,0-2.2-1.1A5.47,5.47,0,0,0,69.16,76Z" transform="translate(16.8 26.26)"/><path class="cls-20" d="M159.91,83.61a4,4,0,0,1-.15,1.1H138v-13a4,4,0,0,1,2.76.21,6.55,6.55,0,0,1,11.06,4.16,4,4,0,0,1,2.94,3.66,3.61,3.61,0,0,1,1.1-.16A4,4,0,0,1,159.91,83.61Z" transform="translate(16.8 26.26)"/><path class="cls-20" d="M-4.09,83.61a4,4,0,0,0,.15,1.1H17.77v-13A4,4,0,0,0,15,72,6.56,6.56,0,0,0,4,76.11,4,4,0,0,0,1,79.76a4,4,0,0,0-1.1-.16A4,4,0,0,0-4.09,83.61Z" transform="translate(16.8 26.26)"/></g><rect class="cls-21" x="169.83" y="90.45" width="14.72" height="48.95" rx="6.59" transform="translate(-12.57 185.21) rotate(-45)"/><rect class="cls-22" x="152.61" y="84.64" width="3.63" height="15.27" transform="translate(-3.22 162.48) rotate(-45)"/><path class="cls-23" d="M83.47,21.21a47.27,47.27,0,1,0,66.85,0A47.27,47.27,0,0,0,83.47,21.21Zm63.14,63.14a42,42,0,1,1,0-59.44A42,42,0,0,1,146.61,84.35Z" transform="translate(16.8 26.26)"/></g></g></g></svg>