<svg xmlns="http://www.w3.org/2000/svg" viewBox="0 0 88.58 60.72"><defs><style>.cls-1{fill:#dbebe7;}.cls-1,.cls-3,.cls-4{stroke:#7899a8;stroke-linejoin:round;}.cls-2{fill:#fff;}.cls-3{fill:#f8dede;}.cls-4{fill:#f3be61;}.cls-5{fill:#7899a8;opacity:0.6;}</style></defs><g id="Capa_2" data-name="Capa 2"><g id="vegetacion"><rect class="cls-1" x="0.5" y="0.5" width="87.58" height="55.54"/><rect class="cls-2" x="5.75" y="6.06" width="77.08" height="44.41"/><polyline class="cls-3" points="74.29 48.14 74.29 60.22 71.39 58.69 69.04 60.22 69.04 48.34"/><polygon class="cls-4" points="71.75 37.69 72.63 38.38 73.69 37.99 74.31 38.93 75.43 38.88 75.74 39.97 76.82 40.27 76.77 41.39 77.71 42.02 77.32 43.07 78.01 43.95 77.32 44.83 77.71 45.88 76.77 46.51 76.82 47.63 75.74 47.93 75.43 49.01 74.31 48.97 73.69 49.9 72.63 49.52 71.75 50.21 70.87 49.52 69.82 49.9 69.19 48.97 68.07 49.01 67.77 47.93 66.69 47.63 66.73 46.51 65.8 45.88 66.19 44.83 65.49 43.95 66.19 43.07 65.8 42.02 66.73 41.39 66.69 40.27 67.77 39.97 68.07 38.88 69.19 38.93 69.82 37.99 70.87 38.38 71.75 37.69"/><rect class="cls-5" x="28.72" y="15.04" width="31.14" height="5.3"/><rect class="cls-5" x="17.27" y="26.48" width="54.05" height="3.39"/><rect class="cls-5" x="22.04" y="32.52" width="44.5" height="1.31"/><rect class="cls-5" x="23.71" y="35.28" width="41.16" height="1.31"/><rect class="cls-5" x="29.36" y="38.03" width="29.85" height="1.31"/><rect class="cls-5" x="13.34" y="45.86" width="21.66" height="1.36"/></g></g></svg>