<svg xmlns="http://www.w3.org/2000/svg" viewBox="0 0 111.12 87.56"><defs><style>.cls-1{fill:none;}.cls-1,.cls-3,.cls-4,.cls-5,.cls-6,.cls-7{stroke:#7899a8;}.cls-1,.cls-7{stroke-miterlimit:10;}.cls-2{fill:#7899a8;}.cls-3{fill:#fff;}.cls-3,.cls-4,.cls-5,.cls-6{stroke-linejoin:round;}.cls-4{fill:#dbebe7;}.cls-5{fill:#f8dede;}.cls-6,.cls-7{fill:#f3be61;}</style></defs><g id="Capa_2" data-name="Capa 2"><g id="vegetacion"><path class="cls-1" d="M67.35,13.53l-1.94.81a.76.76,0,0,0-.4.41l-1,2.47a.73.73,0,0,0,0,.58l.79,1.95L63,21.5l-2-.79a.8.8,0,0,0-.57,0l-2.47,1a.82.82,0,0,0-.41.41l-.82,1.93H54.31l-.81-1.93a.82.82,0,0,0-.41-.41l-2.47-1a.8.8,0,0,0-.57,0l-1.95.79-1.76-1.75.79-1.95a.73.73,0,0,0,0-.58l-1-2.46a.75.75,0,0,0-.41-.41l-1.93-.82V11l1.93-.81a.78.78,0,0,0,.41-.41l1-2.47a.71.71,0,0,0,0-.57l-.79-1.95L48.1,3.07l1.95.79a.71.71,0,0,0,.57,0l2.47-1a.78.78,0,0,0,.41-.41L54.31.5H56.8l.82,1.93a.75.75,0,0,0,.41.41l2.46,1a.73.73,0,0,0,.58,0l2-.79,1.76,1.76L64,6.77a.73.73,0,0,0,0,.58l1,2.47a.78.78,0,0,0,.41.41l1.93.81Z"/><path class="cls-1" d="M55.56,18.36a6.08,6.08,0,1,1,6.07-6.07A6.08,6.08,0,0,1,55.56,18.36Z"/><rect class="cls-2" x="54.8" y="11.53" width="1.52" height="1.52"/><rect class="cls-2" x="51.76" y="11.53" width="1.52" height="1.52"/><rect class="cls-2" x="57.83" y="11.53" width="1.52" height="1.52"/><path class="cls-3" d="M14.08,30H97a3.37,3.37,0,0,1,3.37,3.37v51a0,0,0,0,1,0,0H10.71a0,0,0,0,1,0,0v-51A3.37,3.37,0,0,1,14.08,30Z"/><path class="cls-3" d="M14.08,30H97a3.37,3.37,0,0,1,3.37,3.37v51a0,0,0,0,1,0,0H10.71a0,0,0,0,1,0,0v-51A3.37,3.37,0,0,1,14.08,30Z"/><rect class="cls-4" x="0.5" y="84.36" width="110.12" height="2.7" rx="1.05"/><rect class="cls-5" x="10.8" y="33.9" width="18.47" height="50.27"/><line class="cls-5" x1="10.8" y1="33.9" x2="100.16" y2="33.9"/><circle class="cls-6" cx="44.11" cy="48.83" r="9.41"/><rect class="cls-5" x="57.75" y="60.12" width="15.67" height="9.46"/><line class="cls-3" x1="57.57" y1="72.42" x2="67.61" y2="72.42"/><line class="cls-3" x1="57.57" y1="74.77" x2="71.22" y2="74.77"/><line class="cls-3" x1="57.57" y1="76.31" x2="68.06" y2="76.31"/><line class="cls-3" x1="57.57" y1="77.85" x2="69.96" y2="77.85"/><rect class="cls-5" x="78.09" y="60.12" width="15.67" height="9.46"/><line class="cls-3" x1="77.91" y1="72.42" x2="87.95" y2="72.42"/><line class="cls-3" x1="77.91" y1="74.77" x2="91.57" y2="74.77"/><line class="cls-3" x1="77.91" y1="76.31" x2="88.4" y2="76.31"/><line class="cls-3" x1="77.91" y1="77.85" x2="90.3" y2="77.85"/><line class="cls-3" x1="57.89" y1="45.6" x2="77.97" y2="45.6"/><line class="cls-3" x1="57.89" y1="47.95" x2="85.21" y2="47.95"/><line class="cls-3" x1="57.89" y1="49.49" x2="78.87" y2="49.49"/><line class="cls-3" x1="57.89" y1="51.02" x2="82.67" y2="51.02"/><line class="cls-3" x1="14.01" y1="39.78" x2="25.29" y2="39.78"/><line class="cls-3" x1="14.01" y1="42.78" x2="22.68" y2="42.78"/><line class="cls-3" x1="14.01" y1="45.78" x2="24.25" y2="45.78"/><line class="cls-3" x1="14.01" y1="48.82" x2="25.29" y2="48.82"/><line class="cls-3" x1="14.01" y1="51.82" x2="22.68" y2="51.82"/><line class="cls-3" x1="14.01" y1="54.82" x2="24.25" y2="54.82"/><line class="cls-3" x1="14.01" y1="57.86" x2="25.29" y2="57.86"/><line class="cls-3" x1="14.01" y1="60.86" x2="22.68" y2="60.86"/><line class="cls-3" x1="14.01" y1="63.86" x2="24.25" y2="63.86"/><line class="cls-3" x1="14.01" y1="66.91" x2="25.29" y2="66.91"/><line class="cls-3" x1="14.01" y1="69.9" x2="22.68" y2="69.9"/><line class="cls-3" x1="14.01" y1="72.9" x2="24.25" y2="72.9"/><line class="cls-3" x1="14.01" y1="75.95" x2="25.29" y2="75.95"/><line class="cls-3" x1="14.01" y1="78.95" x2="22.68" y2="78.95"/><line class="cls-3" x1="14.01" y1="81.94" x2="24.25" y2="81.94"/><polyline class="cls-7" points="49.1 40.9 43.56 48.79 53.32 50.06"/><line class="cls-7" x1="47.72" y1="57.53" x2="43.56" y2="48.79"/></g></g></svg>