<svg xmlns="http://www.w3.org/2000/svg" viewBox="0 0 145.57 117.9"><defs><style>.cls-1{fill:#e59596;opacity:0.1;}.cls-2,.cls-3,.cls-6{fill:none;}.cls-2,.cls-3,.cls-4,.cls-5,.cls-6{stroke:#7899a8;stroke-linejoin:round;}.cls-2,.cls-5,.cls-6{stroke-width:0.75px;}.cls-4{fill:#dbebe7;}.cls-5{fill:#fff;}.cls-6{stroke-dasharray:2.82 2.82;}</style></defs><g id="Capa_2" data-name="Capa 2"><g id="vegetacion"><path class="cls-1" d="M11.93,114.61c-2.08-.2-4.28-.45-6-1.73A10.14,10.14,0,0,1,2.89,108a33.59,33.59,0,0,1,3.23-28.9c1.3-2,2.88-4.07,3.07-6.49.23-2.88-1.54-5.43-3-7.87A44.24,44.24,0,0,1,0,43.07c-.1-5.1.78-10.46,3.8-14.51,6.53-8.71,19.58-7.54,29.25-3.19s18.9,11.12,29.46,11c9.49-.1,18-5.78,27-9,10.14-3.66,17.75-7.57,28.12-4.94,1.67.42,6.87,4.31,8.24,5.4,3,2.41,3.61,6.93,3.06,10.86s-2,7.7-2.25,11.66c-1.1,18.14,22.83,31.59,18.31,49.18-2.67,10.4-14.09,15.34-24.27,17.17-5.57,1-11.33,1.52-16.81.19-6.65-1.62-12.53-5.88-19.26-7.08-8.86-1.59-17.7,2.3-26.24,5.38C42.74,120.83,27.87,116.16,11.93,114.61Z"/><line class="cls-2" y1="113.63" x2="140.41" y2="113.63"/><rect class="cls-3" x="95.21" y="0.5" width="13.5" height="112.93"/><polyline class="cls-2" points="108.7 13.96 95.25 13.96 108.7 0.5 127.9 13.86"/><polyline class="cls-2" points="108.7 13.86 95.25 27.32 108.7 27.32"/><polyline class="cls-2" points="108.7 27.21 95.25 40.67 108.7 40.67"/><polyline class="cls-2" points="108.7 40.57 95.25 54.03 108.7 54.03"/><polyline class="cls-2" points="108.7 53.93 95.25 67.39 108.7 67.39"/><polyline class="cls-2" points="108.7 67.29 95.25 80.75 108.7 80.75"/><polyline class="cls-2" points="108.7 80.64 95.25 94.1 108.7 94.1"/><polyline class="cls-2" points="108.7 94 95.25 107.46 108.7 107.46"/><rect class="cls-4" x="36.79" y="13.86" width="58.37" height="4.25"/><rect class="cls-4" x="108.7" y="13.86" width="19.2" height="4.25"/><line class="cls-2" x1="95.21" y1="0.5" x2="36.79" y2="13.86"/><polygon class="cls-2" points="51.73 18.11 44.45 27.32 59.02 27.32 51.73 18.11"/><rect class="cls-5" x="29.18" y="28" width="45.11" height="85.64"/><rect class="cls-2" x="32.75" y="95.24" width="7.33" height="13.45"/><rect class="cls-2" x="42.96" y="95.24" width="7.33" height="13.45"/><rect class="cls-2" x="53.18" y="95.24" width="7.33" height="13.45"/><rect class="cls-2" x="63.39" y="95.24" width="7.33" height="13.45"/><rect class="cls-2" x="32.75" y="76.71" width="7.33" height="13.45"/><rect class="cls-2" x="42.96" y="76.71" width="7.33" height="13.45"/><rect class="cls-2" x="53.18" y="76.71" width="7.33" height="13.45"/><polyline class="cls-2" points="70.71 87.67 70.71 90.17 68.21 90.17"/><polyline class="cls-2" points="65.89 90.17 63.39 90.17 63.39 87.67"/><line class="cls-6" x1="63.39" y1="84.85" x2="63.39" y2="80.62"/><polyline class="cls-2" points="63.39 79.21 63.39 76.71 65.89 76.71"/><polyline class="cls-2" points="68.21 76.71 70.71 76.71 70.71 79.21"/><line class="cls-6" x1="70.71" y1="82.03" x2="70.71" y2="86.26"/><rect class="cls-2" x="32.75" y="58.18" width="7.33" height="13.45"/><rect class="cls-2" x="42.96" y="58.18" width="7.33" height="13.45"/><polyline class="cls-2" points="60.5 69.14 60.5 71.64 58 71.64"/><polyline class="cls-2" points="55.67 71.64 53.17 71.64 53.17 69.14"/><line class="cls-6" x1="53.18" y1="66.32" x2="53.18" y2="62.09"/><polyline class="cls-2" points="53.17 60.68 53.17 58.18 55.67 58.18"/><polyline class="cls-2" points="58 58.18 60.5 58.18 60.5 60.68"/><line class="cls-6" x1="60.5" y1="63.5" x2="60.5" y2="67.73"/><polyline class="cls-2" points="70.71 69.14 70.71 71.64 68.21 71.64"/><polyline class="cls-2" points="65.89 71.64 63.39 71.64 63.39 69.14"/><line class="cls-6" x1="63.39" y1="66.32" x2="63.39" y2="62.09"/><polyline class="cls-2" points="63.39 60.68 63.39 58.18 65.89 58.18"/><polyline class="cls-2" points="68.21 58.18 70.71 58.18 70.71 60.68"/><line class="cls-6" x1="70.71" y1="63.5" x2="70.71" y2="67.73"/><rect class="cls-2" x="32.75" y="39.66" width="7.33" height="13.45"/><polyline class="cls-2" points="50.29 50.61 50.29 53.11 47.79 53.11"/><polyline class="cls-2" points="45.46 53.11 42.96 53.11 42.96 50.61"/><line class="cls-6" x1="42.96" y1="47.79" x2="42.96" y2="43.57"/><polyline class="cls-2" points="42.96 42.16 42.96 39.66 45.46 39.66"/><polyline class="cls-2" points="47.79 39.66 50.29 39.66 50.29 42.16"/><line class="cls-6" x1="50.29" y1="44.97" x2="50.29" y2="49.2"/><polyline class="cls-2" points="60.5 50.61 60.5 53.11 58 53.11"/><polyline class="cls-2" points="55.67 53.11 53.17 53.11 53.17 50.61"/><line class="cls-6" x1="53.18" y1="47.79" x2="53.18" y2="43.57"/><polyline class="cls-2" points="53.17 42.16 53.17 39.66 55.67 39.66"/><polyline class="cls-2" points="58 39.66 60.5 39.66 60.5 42.16"/><line class="cls-6" x1="60.5" y1="44.97" x2="60.5" y2="49.2"/><polyline class="cls-2" points="70.71 50.61 70.71 53.11 68.21 53.11"/><polyline class="cls-2" points="65.89 53.11 63.39 53.11 63.39 50.61"/><line class="cls-6" x1="63.39" y1="47.79" x2="63.39" y2="43.57"/><polyline class="cls-2" points="63.39 42.16 63.39 39.66 65.89 39.66"/><polyline class="cls-2" points="68.21 39.66 70.71 39.66 70.71 42.16"/><line class="cls-6" x1="70.71" y1="44.97" x2="70.71" y2="49.2"/><rect class="cls-4" x="84.79" y="97.98" width="35.15" height="15.65"/><rect class="cls-5" x="22.59" y="96.27" width="3.04" height="17.37"/><rect class="cls-5" x="76.45" y="96.27" width="3.04" height="17.37"/></g></g></svg>