<svg xmlns="http://www.w3.org/2000/svg" xmlns:xlink="http://www.w3.org/1999/xlink" viewBox="0 0 1920 1080"><defs><style>.cls-1,.cls-11,.cls-14,.cls-16,.cls-4{fill:none;}.cls-13,.cls-2{fill:#f8dede;}.cls-3{fill:#f5cdcd;}.cls-4{stroke:#f5cdcd;stroke-miterlimit:10;}.cls-5{isolation:isolate;}.cls-6{opacity:0.1;fill:url(#Degradado_sin_nombre_41);}.cls-15,.cls-7,.cls-8,.cls-9{fill:#fff;}.cls-7{opacity:0.62;}.cls-8{opacity:0.44;}.cls-9{opacity:0.24;}.cls-10,.cls-11,.cls-12,.cls-13,.cls-14,.cls-15,.cls-19{stroke:#7899a8;stroke-width:1.5px;}.cls-10,.cls-11,.cls-12,.cls-13,.cls-14,.cls-15,.cls-16,.cls-19{stroke-linejoin:round;}.cls-10{fill:url(#techos);}.cls-12{fill:url(#Motivo_nuevo_2);}.cls-14{stroke-linecap:round;}.cls-16{stroke:#b5c7d0;stroke-dasharray:39.68 39.68;}.cls-17{fill:#e4e8f2;}.cls-18{fill:#dcdef2;mix-blend-mode:multiply;}.cls-19{fill:#dbebe7;}</style><linearGradient id="Degradado_sin_nombre_41" x1="960.69" y1="1026.12" x2="960.69" y2="34.79" gradientUnits="userSpaceOnUse"><stop offset="0" stop-color="#fff"/><stop offset="0.28" stop-color="#357286"/></linearGradient><pattern id="techos" data-name="techos" width="24" height="29" patternUnits="userSpaceOnUse" viewBox="0 0 24 29"><rect class="cls-1" width="24" height="29"/><rect class="cls-2" x="16" width="8" height="29"/><line class="cls-4" x1="20" x2="20" y2="29"/><rect class="cls-2" x="8" width="8" height="29"/><line class="cls-4" x1="12" x2="12" y2="29"/><rect class="cls-2" width="8" height="29"/><line class="cls-4" x1="4" x2="4" y2="29"/></pattern><pattern id="Motivo_nuevo_2" data-name="Motivo nuevo 2" width="49" height="36" patternUnits="userSpaceOnUse" viewBox="0 0 49 36"><rect class="cls-1" width="49" height="36"/><rect class="cls-2" width="49" height="36"/><circle class="cls-3" cx="6" cy="31" r="1"/><circle class="cls-3" cx="49.5" cy="19" r="1"/><circle class="cls-3" cx="14" cy="25" r="1"/><circle class="cls-3" cx="42.5" cy="25" r="1"/><circle class="cls-3" cx="26" cy="6" r="1"/><circle class="cls-3" cx="21.5" cy="35" r="1"/><circle class="cls-3" cx="7" cy="10" r="1"/><circle class="cls-3" cx="12.5" cy="9" r="1"/><circle class="cls-3" cx="19" cy="22" r="1"/><circle class="cls-3" cx="36.5" cy="12" r="1"/><circle class="cls-3" cx="39.5" cy="7" r="1"/><circle class="cls-3" cx="0.5" cy="19" r="1"/></pattern></defs><g class="cls-5"><g id="Capa_6" data-name="Capa 6"><rect class="cls-6" x="1.56" y="-1.42" width="1918.26" height="1042.53"/><path class="cls-7" d="M1681.37,841.09l-1.95-1c-117.12-59.3-257.6-36.27-385.45-6.44-35.44,8.27-72.71,16.94-107.68,6.91-48.27-13.84-84-61.21-134-65.89-47.37-4.43-88.83,31.05-135.39,40.87C857,828.18,797.77,797.58,741,774.86S613,738.91,566.77,779c-26.59,23-40,60.29-70.76,77.3-35.55,19.66-80,4.78-115.67-14.72S308.8,797.4,268.18,798c-48.23.65-88.5,36.63-135.19,48.69-33.82,8.73-68.86,4.54-103.23,2.91-31.69-1.5-64.57,7.08-95.28,1.16-78.19-15.06-157.13-32-237.26-22-92.76,11.52-173.72,61.47-201.85,124.53s-2.14,136.41,64.77,182.85c57.32,39.78,137.2,58.4,214.5,74.54,201.13,42,408.67,76,618.5,71.72,142.26-2.93,282.7-23.45,424.76-29.68,341.63-15,686.53,52.81,1024.43,14.28,82.82-9.44,174.86-31.41,207.6-85.61,13.63-22.57,14.72-47.74,15.62-72.23,2-55,3.93-110.67-13.68-164.26a224,224,0,0,0-52.76-87.05c-28.15-28.8-47.25-36.12-86.77-36.06A373.21,373.21,0,0,0,1791.61,842c-24.06,8.29-49,19.23-74,14.31C1704.73,853.73,1693.09,847.11,1681.37,841.09Z"/><path class="cls-8" d="M1688.05,727.53c-168.64,53.12-331.24,128-509.68,145.8-265.28,26.46-522.13-76.19-785-116.49C167.25,722.18-68.47,734.32-288.17,792c-14.63,3.84-30.2,8.49-39.1,19.15-7.76,9.31-8.89,21.41-9.54,32.84A979.51,979.51,0,0,0-318,1098.68c13,63,36.69,130.71,98.49,166.67,46.32,27,105.27,30.72,161.19,33.11,447.8,19.14,896.59,4.1,1344.43-14.71,227-9.54,455.55-20.25,675.93-67.82,18.83-4.06,38.38-8.75,52.74-20,23.36-18.27,26.65-48.19,29.85-75.16,14-117.93,56.14-233.37,122.61-337.31,31.65-49.49,29.53-80.1-40.35-97.18-65.78-16.08-137.89-15.93-205.31-9.23C1841.63,685,1763.43,703.78,1688.05,727.53Z"/><path class="cls-9" d="M187.56,614.73c20.2-.26,40.25,1.23,60,5.93,67.06,16,125,67.9,192.69,79.73,80.66,14.09,159.25-30.52,239.42-48a366.34,366.34,0,0,1,183.18,7.17c78.64,23.61,154.61,74,235.43,63.77,69.91-8.87,129.45-62,197.32-83.14,58-18.09,119.33-12.09,179.4-15.06,83.73-4.13,166-25,249.57-31,40.53-2.94,81.49-2.45,121.52,6,19.68,4.18,38.14,12.69,57.53,17.57,15.76,4,32.48,3.29,44.09,19.22,6.78,9.31,7.76,21.4,8.34,32.83a1117.71,1117.71,0,0,1-16.47,254.74c-11.41,63.06-32.07,130.72-86.08,166.69-40.47,27-92,30.74-140.84,33.14-391.24,19.22-783.35,4.25-1174.62-14.48-198.3-9.5-398-20.17-590.56-67.7-16.46-4.06-33.53-8.75-46.07-20C-119,1003.9-121.89,974-124.68,947c-12.21-117.93-49-233.36-107.07-337.29-7-12.58-15.3-23-8.62-35.87,4.77-9.18,20.51-14.92,28.84-17.62,22-7.15,46.56-4.13,68,4.23,35.41,13.84,66.45,39.84,101.87,53.62C31.12,642.42,110.47,615.76,187.56,614.73Z"/><path class="cls-1" d="M2052.35,633.64c-87.62-41.94-193.87-42.84-282.2-2.41-31.24,14.3-60.26,33.43-92.48,45.36-66.53,24.63-140.08,16.5-210.64,9.15-116.34-12.12-234.72-21.13-349.59.94-122.32,23.5-239.74,82-364.19,76.72C573,755.8,418.35,616.22,238.09,608.74c-97.58-4-194.75,31.43-291.63,19.09-10.86-1.38-21.82-3.42-31.59-8.35-12.25-6.17-21.82-16.42-31.73-25.89-70.21-67.11-170.4-101.6-267-91.92"/></g><g id="casas"><polyline class="cls-10" points="1038.18 954.97 1067.1 954.97 1085.26 974.52 1023.8 974.52 1023.8 970.33"/><polygon class="cls-11" points="942.79 1040.17 845.01 1040.17 845.01 941.16 893.9 910.27 942.79 941.16 942.79 1040.17"/><rect class="cls-11" x="942.79" y="970.66" width="81.01" height="69.51"/><rect class="cls-12" x="844.81" y="1017.09" width="178.99" height="23.08"/><rect class="cls-11" x="1023.8" y="978.71" width="51.68" height="61.46"/><line class="cls-11" x1="1067.1" y1="922.14" x2="1067.1" y2="954.96"/><polygon class="cls-10" points="1025.89 918.65 1074.78 918.65 1056.62 899.09 869.46 899.09 838.03 939.6 840.82 943.79 893.9 910.27 942.79 941 942.79 966.14 1041.96 966.14 1025.89 918.65"/><rect class="cls-11" x="1027.99" y="984.23" width="27.94" height="55.93"/><rect class="cls-13" x="1015.37" y="1002.41" width="53.17" height="22.35" transform="translate(2055.54 -28.38) rotate(90)"/><line class="cls-14" x1="1036.37" y1="1010.84" x2="1033.58" y2="1010.84"/><rect class="cls-11" x="972.12" y="981.5" width="27.94" height="30.73"/><rect class="cls-11" x="973.52" y="985.69" width="25.14" height="22.35" transform="translate(1982.95 10.78) rotate(90)"/><line class="cls-11" x1="986.09" y1="1010.14" x2="986.09" y2="985"/><rect class="cls-11" x="1040.56" y="925.63" width="16.76" height="23.75"/><rect class="cls-11" x="1039.86" y="931.92" width="18.16" height="11.17" transform="translate(1986.45 -111.44) rotate(90)"/><rect class="cls-11" x="962.34" y="1012.23" width="48.89" height="4.89"/><rect class="cls-11" x="872.95" y="981.5" width="39.11" height="30.73"/><rect class="cls-11" x="879.93" y="980.11" width="25.14" height="33.52" transform="translate(1889.37 104.37) rotate(90)"/><line class="cls-11" x1="886.92" y1="1010.14" x2="886.92" y2="985"/><line class="cls-11" x1="898.09" y1="1010.14" x2="898.09" y2="985"/><rect class="cls-11" x="863.17" y="1012.23" width="58.66" height="4.89"/><rect class="cls-11" x="983.29" y="876.75" width="22.35" height="22.35"/><polyline class="cls-11" points="838.03 939.6 893.9 903.28 948.37 938.2 945.58 942.39 942.79 941"/><rect class="cls-11" x="1023.8" y="974.52" width="62.85" height="4.19"/><polyline class="cls-11" points="1026.59 921.44 1075.48 921.44 1075.48 918.65 1026.59 918.65"/><rect class="cls-15" x="942.79" y="966.14" width="99.17" height="4.19"/><line class="cls-15" x1="164.26" y1="1040.17" x2="256.45" y2="1040.17"/><rect class="cls-15" x="9.22" y="920.05" width="145.26" height="9.78"/><rect class="cls-13" x="126.55" y="987.09" width="22.35" height="53.08"/><line class="cls-14" x1="132.13" y1="1012.23" x2="129.34" y2="1012.23"/><path class="cls-11" d="M147.57,975.92H123a15.69,15.69,0,0,1,24.59,0Z"/><path class="cls-15" d="M93.71,974.52h-37a35.26,35.26,0,0,1,37,0Z"/><path class="cls-11" d="M165,903.43a84.12,84.12,0,0,1,90.79,0"/><path class="cls-11" d="M165,910.42a84.12,84.12,0,0,1,90.79,0"/><rect class="cls-11" x="10.61" y="956.36" width="143.87" height="83.81"/><rect class="cls-11" x="154.48" y="889.32" width="9.78" height="150.85"/><rect class="cls-11" x="256.45" y="889.32" width="9.78" height="150.85"/><rect class="cls-15" x="147.5" y="914.46" width="125.71" height="5.59"/><rect class="cls-15" x="151.69" y="920.05" width="117.33" height="4.19"/><rect class="cls-15" x="174.04" y="982.9" width="72.63" height="57.27"/><line class="cls-15" x1="174.04" y1="982.2" x2="174.04" y2="1040.17"/><line class="cls-15" x1="192.19" y1="982.2" x2="192.19" y2="1040.17"/><line class="cls-15" x1="210.35" y1="982.2" x2="210.35" y2="1040.17"/><line class="cls-15" x1="228.51" y1="982.2" x2="228.51" y2="1040.17"/><line class="cls-15" x1="246.67" y1="982.2" x2="246.67" y2="1040.17"/><rect class="cls-15" x="176.83" y="986.39" width="12.57" height="15.2"/><rect class="cls-15" x="194.99" y="986.39" width="12.57" height="15.2"/><rect class="cls-15" x="213.15" y="986.39" width="12.57" height="15.2"/><rect class="cls-15" x="231.3" y="986.39" width="12.57" height="15.2"/><rect class="cls-15" x="176.83" y="1003.93" width="12.57" height="15.2"/><rect class="cls-15" x="194.99" y="1003.93" width="12.57" height="15.2"/><rect class="cls-15" x="213.15" y="1003.93" width="12.57" height="15.2"/><rect class="cls-15" x="231.3" y="1003.93" width="12.57" height="15.2"/><rect class="cls-15" x="176.83" y="1021.47" width="12.57" height="15.2"/><rect class="cls-15" x="194.99" y="1021.47" width="12.57" height="15.2"/><rect class="cls-15" x="213.15" y="1021.47" width="12.57" height="15.2"/><rect class="cls-15" x="231.3" y="1021.47" width="12.57" height="15.2"/><rect class="cls-13" x="189.4" y="935.41" width="41.9" height="37.71"/><rect class="cls-15" x="10.61" y="952.17" width="143.87" height="4.19"/><rect class="cls-15" x="14.8" y="929.82" width="139.68" height="22.35"/><rect class="cls-15" x="14.8" y="934.01" width="139.68" height="4.19"/><polyline class="cls-11" points="10.61 981.5 21.79 981.5 21.79 1007.98 38.55 1008.04 38.55 1027.6 111.18 1027.6 111.18 981.5 120.96 981.5 120.96 1040.87"/><rect class="cls-13" x="55.31" y="981.5" width="39.11" height="46.09"/><line class="cls-11" x1="22.49" y1="996.87" x2="111.18" y2="996.41"/><line class="cls-11" x1="39.25" y1="1021.47" x2="111.18" y2="1021.47"/><line class="cls-11" x1="105.59" y1="987.79" x2="105.59" y2="1028.3"/><line class="cls-11" x1="100.01" y1="987.79" x2="100.01" y2="1028.3"/><line class="cls-11" x1="94.42" y1="987.79" x2="94.42" y2="1028.3"/><line class="cls-11" x1="88.83" y1="987.79" x2="88.83" y2="1028.3"/><line class="cls-11" x1="83.25" y1="987.79" x2="83.25" y2="1028.3"/><line class="cls-11" x1="77.66" y1="987.79" x2="77.66" y2="1028.3"/><line class="cls-11" x1="72.07" y1="987.79" x2="72.07" y2="1028.3"/><line class="cls-11" x1="66.49" y1="987.79" x2="66.49" y2="1028.3"/><line class="cls-11" x1="60.9" y1="987.79" x2="60.9" y2="1028.3"/><line class="cls-11" x1="55.31" y1="987.79" x2="55.31" y2="1028.3"/><line class="cls-11" x1="49.72" y1="987.79" x2="49.72" y2="1028.3"/><line class="cls-11" x1="44.14" y1="987.79" x2="44.14" y2="1028.3"/><line class="cls-11" x1="38.55" y1="987.79" x2="38.55" y2="1008.74"/><line class="cls-11" x1="32.96" y1="987.79" x2="32.96" y2="1007.34"/><line class="cls-11" x1="27.38" y1="987.79" x2="27.38" y2="1007.34"/><line class="cls-15" x1="516.25" y1="977.31" x2="516.25" y2="1040.17"/><rect class="cls-11" x="1104.29" y="890.71" width="83.81" height="149.45"/><line class="cls-11" x1="1104.29" y1="890.71" x2="1188.09" y2="890.71"/><polyline class="cls-13" points="1322.18 1040.87 1322.18 967.54 1188.79 967.54 1188.09 967.54 1188.09 953.57 1336.15 953.57 1336.15 1040.17 1324.98 1040.17"/><polyline class="cls-11" points="1188.79 899.09 1306.82 899.09 1306.82 954.27"/><rect class="cls-13" x="1199.27" y="978.71" width="39.11" height="61.46"/><line class="cls-15" x1="1218.82" y1="978.7" x2="1218.82" y2="1040.87"/><line class="cls-15" x1="1277.49" y1="978.01" x2="1277.49" y2="1005.95"/><line class="cls-15" x1="1214.63" y1="913.76" x2="1214.63" y2="944.49"/><line class="cls-15" x1="1271.9" y1="913.76" x2="1271.9" y2="944.49"/><line class="cls-15" x1="1255.14" y1="913.76" x2="1255.14" y2="944.49"/><rect class="cls-11" x="1104.29" y="985.69" width="47.49" height="34.92"/><rect class="cls-11" x="1104.29" y="913.06" width="47.49" height="34.92"/><rect class="cls-11" x="1199.27" y="913.06" width="90.79" height="32.13"/><rect class="cls-11" x="1253.74" y="977.31" width="47.49" height="27.94"/><rect class="cls-15" x="1192.28" y="886.52" width="9.78" height="12.57"/><rect class="cls-15" x="1202.06" y="876.75" width="43.3" height="22.35"/><rect class="cls-15" x="1245.36" y="886.52" width="23.75" height="12.57"/><rect class="cls-15" x="1214.63" y="1002.45" width="8.38" height="15.36"/><rect class="cls-13" x="1202.06" y="876.75" width="43.3" height="5.59"/><rect class="cls-13" x="1192.28" y="886.52" width="9.78" height="5.59"/><rect class="cls-13" x="1245.36" y="886.52" width="23.75" height="5.59"/><rect class="cls-11" x="505.07" y="964.74" width="300.31" height="75.43"/><rect class="cls-15" x="516.25" y="978.01" width="93.58" height="62.16"/><rect class="cls-15" x="635.5" y="978.71" width="46.09" height="26.54"/><rect class="cls-13" x="721.57" y="978.71" width="26.54" height="61.46"/><rect class="cls-11" x="757.89" y="978.71" width="33.52" height="26.54"/><line class="cls-15" x1="708.8" y1="964.74" x2="708.8" y2="1040.17"/><rect class="cls-15" x="499.14" y="959.15" width="312.88" height="5.59"/><polygon class="cls-10" points="798.74 936.81 512.4 936.81 499.49 959.15 812.36 959.15 798.74 936.81"/><rect class="cls-15" x="646.15" y="924.24" width="19.55" height="12.57"/><line class="cls-15" x1="547.67" y1="978.01" x2="547.67" y2="1040.17"/><line class="cls-15" x1="578.4" y1="978.01" x2="578.4" y2="1040.17"/><line class="cls-15" x1="609.83" y1="978.01" x2="609.83" y2="1040.17"/><rect class="cls-15" x="521.83" y="984.3" width="18.16" height="4.19"/><rect class="cls-15" x="553.96" y="984.3" width="18.16" height="4.19"/><rect class="cls-15" x="586.08" y="984.3" width="18.16" height="4.19"/><line class="cls-15" x1="658.54" y1="979.41" x2="658.54" y2="1004.9"/><rect class="cls-11" x="618.91" y="978.71" width="16.5" height="26.54"/><line class="cls-11" x1="618.91" y1="978.71" x2="635.41" y2="978.71"/><line class="cls-11" x1="618.95" y1="982.5" x2="635.45" y2="982.5"/><line class="cls-11" x1="618.98" y1="986.29" x2="635.49" y2="986.29"/><line class="cls-11" x1="619.02" y1="990.08" x2="635.52" y2="990.08"/><line class="cls-11" x1="619.06" y1="993.87" x2="635.56" y2="993.87"/><line class="cls-11" x1="619.09" y1="997.67" x2="635.6" y2="997.67"/><line class="cls-11" x1="619.13" y1="1001.46" x2="635.63" y2="1001.46"/><line class="cls-11" x1="619.17" y1="1005.25" x2="635.67" y2="1005.25"/><rect class="cls-11" x="681.76" y="978.71" width="16.5" height="26.54"/><line class="cls-11" x1="681.76" y1="978.71" x2="698.27" y2="978.71"/><line class="cls-11" x1="681.8" y1="982.5" x2="698.3" y2="982.5"/><line class="cls-11" x1="681.84" y1="986.29" x2="698.34" y2="986.29"/><line class="cls-11" x1="681.87" y1="990.08" x2="698.38" y2="990.08"/><line class="cls-11" x1="681.91" y1="993.87" x2="698.41" y2="993.87"/><line class="cls-11" x1="681.95" y1="997.67" x2="698.45" y2="997.67"/><line class="cls-11" x1="681.98" y1="1001.46" x2="698.49" y2="1001.46"/><line class="cls-11" x1="682.02" y1="1005.25" x2="698.53" y2="1005.25"/><line class="cls-11" x1="757.19" y1="978.71" x2="775.07" y2="978.71"/><line class="cls-11" x1="757.23" y1="982.5" x2="775.11" y2="982.5"/><line class="cls-11" x1="757.27" y1="986.29" x2="775.15" y2="986.29"/><line class="cls-11" x1="757.31" y1="990.08" x2="775.19" y2="990.08"/><line class="cls-11" x1="757.35" y1="993.87" x2="775.23" y2="993.87"/><line class="cls-11" x1="757.39" y1="997.67" x2="775.27" y2="997.67"/><line class="cls-11" x1="757.43" y1="1001.46" x2="775.31" y2="1001.46"/><line class="cls-11" x1="757.47" y1="1005.25" x2="775.35" y2="1005.25"/><line class="cls-11" x1="774.65" y1="979.41" x2="774.65" y2="1005.95"/><line class="cls-14" x1="728.56" y1="1012.23" x2="725.76" y2="1012.23"/><line class="cls-11" x1="1848.07" y1="1040.17" x2="1764.26" y2="1040.17"/><line class="cls-11" x1="1848.07" y1="1029.79" x2="1764.26" y2="1029.79"/><line class="cls-11" x1="1848.07" y1="1019.42" x2="1764.26" y2="1019.42"/><line class="cls-11" x1="1848.07" y1="1009.04" x2="1764.26" y2="1009.04"/><line class="cls-11" x1="1848.07" y1="998.66" x2="1764.26" y2="998.66"/><line class="cls-11" x1="1848.07" y1="988.29" x2="1764.26" y2="988.29"/><line class="cls-11" x1="1848.07" y1="977.91" x2="1764.26" y2="977.91"/><line class="cls-11" x1="1848.07" y1="967.53" x2="1764.26" y2="967.54"/><rect class="cls-11" x="1607.3" y="946.58" width="240.25" height="93.58"/><rect class="cls-15" x="1603.81" y="963.35" width="247.23" height="4.19"/><line class="cls-11" x1="1744.88" y1="967.54" x2="1744.88" y2="1040.17"/><line class="cls-11" x1="1763.56" y1="968.23" x2="1763.56" y2="1040.87"/><rect class="cls-11" x="1649.03" y="980.11" width="50.28" height="29.33"/><rect class="cls-11" x="1654.62" y="985.69" width="39.11" height="23.75"/><rect class="cls-15" x="1771.95" y="982.9" width="18.16" height="22.35"/><rect class="cls-11" x="1672.77" y="996.87" width="2.79" height="12.57"/><line class="cls-11" x1="1655.31" y1="996.87" x2="1694.42" y2="996.87"/><polygon class="cls-15" points="1749.6 946.58 1706.3 946.58 1714.68 924.13 1714.68 908.87 1741.22 908.87 1741.22 924.59 1749.6 946.58"/><line class="cls-15" x1="1714.68" y1="916.4" x2="1741.22" y2="916.4"/><rect class="cls-11" x="1616.38" y="939.6" width="222.09" height="6.98"/><line class="cls-11" x1="1838.47" y1="940.3" x2="1838.47" y2="947.28"/><line class="cls-11" x1="1806.74" y1="940.3" x2="1806.74" y2="947.28"/><line class="cls-11" x1="1775.01" y1="940.3" x2="1775.01" y2="947.28"/><line class="cls-11" x1="1743.29" y1="940.3" x2="1743.29" y2="947.28"/><line class="cls-11" x1="1711.56" y1="940.3" x2="1711.56" y2="947.28"/><line class="cls-11" x1="1679.83" y1="940.3" x2="1679.84" y2="947.28"/><line class="cls-11" x1="1648.11" y1="940.3" x2="1648.11" y2="947.28"/><line class="cls-11" x1="1616.38" y1="940.3" x2="1616.38" y2="947.28"/><rect class="cls-13" x="1798.48" y="978.71" width="26.54" height="61.46"/><line class="cls-14" x1="1805.47" y1="1012.23" x2="1802.67" y2="1012.23"/><rect class="cls-12" x="1607.13" y="1009.44" width="138.28" height="30.73"/><rect class="cls-12" x="1607.13" y="946.58" width="240.25" height="16.76"/><polygon class="cls-11" points="1973.08 908.87 1973.08 871.16 1869.72 871.16 1869.72 908.87 1869.72 1040.17 1973.08 1040.17 2119.74 1040.17 2119.74 908.87 1973.08 908.87"/><rect class="cls-15" x="1883.69" y="900.49" width="69.84" height="33.52"/><rect class="cls-15" x="1882.29" y="975.92" width="71.24" height="64.25"/><rect class="cls-15" x="1882.29" y="998.26" width="71.24" height="2.79"/><rect class="cls-11" x="-522.95" y="1040.17" width="2909.48" height="9.78"/><line class="cls-16" x1="-331.28" y1="1069.5" x2="2188.15" y2="1069.5"/><polygon class="cls-11" points="390.54 964.74 390.54 876.75 294.16 876.75 294.16 1040.17 390.54 1040.17 488.31 1040.17 488.31 964.74 390.54 964.74"/><rect class="cls-13" x="390.54" y="857.19" width="97.77" height="107.55"/><rect class="cls-15" x="390.54" y="893.51" width="51.68" height="34.92"/><rect class="cls-11" x="361.2" y="893.51" width="12.57" height="34.92"/><line class="cls-11" x1="406.49" y1="893.51" x2="406.49" y2="928.43"/><rect class="cls-11" x="421.27" y="981.5" width="39.11" height="34.92"/><line class="cls-11" x1="437.22" y1="981.5" x2="437.22" y2="1016.42"/><rect class="cls-13" x="390.54" y="981.5" width="30.73" height="58.66"/><rect class="cls-13" x="310.92" y="857.19" width="9.78" height="19.55"/><rect class="cls-11" x="294.16" y="964.74" width="44.7" height="75.43"/><line class="cls-11" x1="294.16" y1="964.74" x2="338.86" y2="964.74"/><line class="cls-11" x1="294.22" y1="971.6" x2="338.92" y2="971.6"/><line class="cls-11" x1="294.29" y1="978.46" x2="338.98" y2="978.46"/><line class="cls-11" x1="294.35" y1="985.31" x2="339.05" y2="985.31"/><line class="cls-11" x1="294.41" y1="992.17" x2="339.11" y2="992.17"/><line class="cls-11" x1="294.48" y1="999.03" x2="339.17" y2="999.03"/><line class="cls-11" x1="294.54" y1="1005.88" x2="339.24" y2="1005.88"/><line class="cls-11" x1="294.6" y1="1012.74" x2="339.3" y2="1012.74"/><line class="cls-11" x1="294.67" y1="1019.6" x2="339.36" y2="1019.6"/><line class="cls-11" x1="294.73" y1="1026.45" x2="339.43" y2="1026.45"/><line class="cls-11" x1="294.79" y1="1033.31" x2="339.49" y2="1033.31"/><line class="cls-11" x1="294.86" y1="1040.17" x2="339.55" y2="1040.17"/><line class="cls-14" x1="397.52" y1="1009.44" x2="394.73" y2="1009.44"/><polyline class="cls-10" points="-88.19 942.39 -88.19 934.01 -11.72 934.01 1.9 978.01 -74.93 978.01 -74.93 964.74"/><rect class="cls-11" x="1348.72" y="827.86" width="157.84" height="212.31"/><rect class="cls-12" x="1348.72" y="827.86" width="157.84" height="19.55"/><rect class="cls-12" x="1348.72" y="1003.85" width="157.84" height="36.32"/><rect class="cls-11" x="1506.56" y="864.17" width="71.24" height="175.99"/><line class="cls-11" x1="1410.18" y1="1004.55" x2="1410.18" y2="853.7"/><line class="cls-11" x1="1349.42" y1="847.41" x2="1507.26" y2="847.41"/><line class="cls-11" x1="1349.42" y1="853" x2="1507.26" y2="853"/><line class="cls-11" x1="1349.42" y1="931.22" x2="1578.49" y2="931.22"/><line class="cls-11" x1="1348.02" y1="853.7" x2="1409.91" y2="853.7"/><line class="cls-11" x1="1348.16" y1="864.67" x2="1410.05" y2="864.67"/><line class="cls-11" x1="1348.3" y1="875.65" x2="1410.19" y2="875.65"/><line class="cls-11" x1="1348.44" y1="886.62" x2="1410.33" y2="886.62"/><line class="cls-11" x1="1348.58" y1="897.6" x2="1410.47" y2="897.6"/><line class="cls-11" x1="1348.72" y1="908.57" x2="1410.6" y2="908.57"/><line class="cls-11" x1="1348.85" y1="919.55" x2="1410.74" y2="919.55"/><line class="cls-11" x1="1348.99" y1="930.52" x2="1410.88" y2="930.52"/><rect class="cls-11" x="1513.54" y="982.9" width="57.27" height="57.27"/><rect class="cls-11" x="1520.53" y="945.19" width="43.3" height="25.14"/><path class="cls-11" d="M1556.84,887.92a22,22,0,0,0-29.33,0v25.14h29.33Z"/><path class="cls-13" d="M1501,962a22,22,0,0,0-29.33,0v68.44H1501Z"/><rect class="cls-11" x="1519.13" y="878.14" width="47.49" height="43.3"/><rect class="cls-15" x="1466.05" y="1030.39" width="40.51" height="9.78"/><path class="cls-15" d="M1396.21,874a25.91,25.91,0,0,0-15.71-5.59,22.85,22.85,0,0,0-15,5.59v51.68h30.73Z"/><line class="cls-11" x1="1396.21" y1="908.17" x2="1396.21" y2="924.93"/><line class="cls-11" x1="1391.82" y1="908.17" x2="1391.82" y2="924.93"/><line class="cls-11" x1="1387.43" y1="908.17" x2="1387.43" y2="924.93"/><line class="cls-11" x1="1383.04" y1="908.17" x2="1383.04" y2="924.93"/><line class="cls-11" x1="1378.65" y1="908.17" x2="1378.65" y2="924.93"/><line class="cls-11" x1="1374.26" y1="908.17" x2="1374.26" y2="924.93"/><line class="cls-11" x1="1369.87" y1="908.17" x2="1369.87" y2="924.93"/><line class="cls-11" x1="1365.48" y1="908.17" x2="1365.48" y2="924.93"/><line class="cls-11" x1="1364.79" y1="907.47" x2="1395.52" y2="907.47"/><line class="cls-11" x1="1380.85" y1="869.06" x2="1380.85" y2="906.78"/><path class="cls-15" d="M1456.27,874a25.91,25.91,0,0,0-15.71-5.59,22.84,22.84,0,0,0-15,5.59v51.68h30.72Z"/><line class="cls-11" x1="1456.27" y1="908.17" x2="1456.27" y2="924.93"/><line class="cls-11" x1="1451.88" y1="908.17" x2="1451.89" y2="924.93"/><line class="cls-11" x1="1447.5" y1="908.17" x2="1447.5" y2="924.93"/><line class="cls-11" x1="1443.11" y1="908.17" x2="1443.11" y2="924.93"/><line class="cls-11" x1="1438.72" y1="908.17" x2="1438.72" y2="924.93"/><line class="cls-11" x1="1434.33" y1="908.17" x2="1434.33" y2="924.93"/><line class="cls-11" x1="1429.94" y1="908.17" x2="1429.94" y2="924.93"/><line class="cls-11" x1="1425.55" y1="908.17" x2="1425.55" y2="924.93"/><line class="cls-11" x1="1424.85" y1="907.47" x2="1455.58" y2="907.47"/><line class="cls-11" x1="1440.91" y1="869.06" x2="1440.91" y2="906.78"/><path class="cls-15" d="M1456.27,952.17a25.91,25.91,0,0,0-15.71-5.59,22.84,22.84,0,0,0-15,5.59v51.68h30.72Z"/><line class="cls-11" x1="1456.27" y1="986.39" x2="1456.27" y2="1003.15"/><line class="cls-11" x1="1451.88" y1="986.39" x2="1451.89" y2="1003.15"/><line class="cls-11" x1="1447.5" y1="986.39" x2="1447.5" y2="1003.15"/><line class="cls-11" x1="1443.11" y1="986.39" x2="1443.11" y2="1003.15"/><line class="cls-11" x1="1438.72" y1="986.39" x2="1438.72" y2="1003.15"/><line class="cls-11" x1="1434.33" y1="986.39" x2="1434.33" y2="1003.15"/><line class="cls-11" x1="1429.94" y1="986.39" x2="1429.94" y2="1003.15"/><line class="cls-11" x1="1425.55" y1="986.39" x2="1425.55" y2="1003.15"/><line class="cls-11" x1="1424.85" y1="985.69" x2="1455.58" y2="985.69"/><line class="cls-11" x1="1440.91" y1="947.28" x2="1440.91" y2="985"/><path class="cls-15" d="M1396.21,952.17a25.91,25.91,0,0,0-15.71-5.59,22.85,22.85,0,0,0-15,5.59v51.68h30.73Z"/><line class="cls-11" x1="1396.21" y1="986.39" x2="1396.21" y2="1003.15"/><line class="cls-11" x1="1391.82" y1="986.39" x2="1391.82" y2="1003.15"/><line class="cls-11" x1="1387.43" y1="986.39" x2="1387.43" y2="1003.15"/><line class="cls-11" x1="1383.04" y1="986.39" x2="1383.04" y2="1003.15"/><line class="cls-11" x1="1378.65" y1="986.39" x2="1378.65" y2="1003.15"/><line class="cls-11" x1="1374.26" y1="986.39" x2="1374.26" y2="1003.15"/><line class="cls-11" x1="1369.87" y1="986.39" x2="1369.87" y2="1003.15"/><line class="cls-11" x1="1365.48" y1="986.39" x2="1365.48" y2="1003.15"/><line class="cls-11" x1="1364.79" y1="985.69" x2="1395.52" y2="985.69"/><line class="cls-11" x1="1380.85" y1="947.28" x2="1380.85" y2="985"/><line class="cls-11" x1="1570.81" y1="982.2" x2="1570.81" y2="1039.47"/><line class="cls-11" x1="1562.63" y1="982.2" x2="1562.63" y2="1039.47"/><line class="cls-11" x1="1554.45" y1="982.2" x2="1554.45" y2="1039.47"/><line class="cls-11" x1="1546.27" y1="982.2" x2="1546.27" y2="1039.47"/><line class="cls-11" x1="1538.09" y1="982.2" x2="1538.09" y2="1039.47"/><line class="cls-11" x1="1529.9" y1="982.2" x2="1529.9" y2="1039.47"/><line class="cls-11" x1="1521.72" y1="982.2" x2="1521.72" y2="1039.47"/><line class="cls-11" x1="1513.54" y1="982.2" x2="1513.54" y2="1039.47"/><line class="cls-11" x1="1542.87" y1="883.03" x2="1542.87" y2="912.36"/><line class="cls-14" x1="1478.62" y1="996.87" x2="1475.83" y2="996.87"/><rect class="cls-11" x="1401.8" y="820.87" width="8.38" height="26.54"/><rect class="cls-11" x="1348.72" y="820.87" width="8.38" height="26.54"/><rect class="cls-17" x="848.5" y="944.49" width="12.57" height="3.46"/><rect class="cls-17" x="848.5" y="951.4" width="8.38" height="3.46"/><rect class="cls-17" x="848.5" y="958.31" width="12.57" height="3.46"/><rect class="cls-17" x="848.5" y="965.22" width="8.38" height="3.46"/><rect class="cls-17" x="848.5" y="972.13" width="12.57" height="3.46"/><rect class="cls-17" x="848.5" y="979.04" width="8.38" height="3.46"/><rect class="cls-17" x="848.5" y="985.95" width="12.57" height="3.46"/><rect class="cls-17" x="848.5" y="992.86" width="8.38" height="3.46"/><rect class="cls-17" x="848.5" y="999.77" width="12.57" height="3.46"/><rect class="cls-17" x="848.5" y="1006.68" width="8.38" height="3.46"/><rect class="cls-17" x="926.72" y="944.49" width="12.57" height="3.46" transform="translate(1866.02 1892.43) rotate(180)"/><rect class="cls-17" x="930.91" y="951.4" width="8.38" height="3.46" transform="translate(1870.21 1906.25) rotate(180)"/><rect class="cls-17" x="926.72" y="958.31" width="12.57" height="3.46" transform="translate(1866.02 1920.07) rotate(180)"/><rect class="cls-17" x="930.91" y="965.22" width="8.38" height="3.46" transform="translate(1870.21 1933.89) rotate(180)"/><rect class="cls-17" x="926.72" y="972.13" width="12.57" height="3.46" transform="translate(1866.02 1947.72) rotate(180)"/><rect class="cls-17" x="930.91" y="979.04" width="8.38" height="3.46" transform="translate(1870.21 1961.54) rotate(180)"/><rect class="cls-17" x="926.72" y="985.95" width="12.57" height="3.46" transform="translate(1866.02 1975.36) rotate(180)"/><rect class="cls-17" x="930.91" y="992.86" width="8.38" height="3.46" transform="translate(1870.21 1989.18) rotate(180)"/><rect class="cls-17" x="926.72" y="999.77" width="12.57" height="3.46" transform="translate(1866.02 2003) rotate(180)"/><rect class="cls-17" x="930.91" y="1006.68" width="8.38" height="3.46" transform="translate(1870.21 2016.82) rotate(180)"/><rect class="cls-17" x="787.92" y="1011.53" width="12.57" height="3.46" transform="translate(1588.41 2026.52) rotate(180)"/><rect class="cls-17" x="792.11" y="1018.44" width="8.38" height="3.46" transform="translate(1592.6 2040.34) rotate(180)"/><rect class="cls-17" x="787.92" y="1025.35" width="12.57" height="3.46" transform="translate(1588.41 2054.16) rotate(180)"/><rect class="cls-17" x="792.11" y="1032.26" width="8.38" height="3.46" transform="translate(1592.6 2067.99) rotate(180)"/></g><g id="sombras"><rect class="cls-18" x="942.79" y="970.33" width="81.01" height="4.89"/><rect class="cls-18" x="863.17" y="1016.42" width="59.36" height="4.89"/><rect class="cls-18" x="962.34" y="1016.42" width="49.59" height="4.89"/><polygon class="cls-18" points="1067.1 924.93 1028.69 924.93 1027.29 922.14 1067.1 921.44 1067.1 924.93"/><rect class="cls-18" x="14.8" y="929.82" width="138.98" height="4.89"/><rect class="cls-18" x="164.26" y="924.24" width="91.49" height="4.89"/><rect class="cls-18" x="138.42" y="934.01" width="15.36" height="106.85"/><rect class="cls-18" x="390.54" y="964.74" width="97.08" height="4.89"/><rect class="cls-18" x="505.07" y="964.74" width="299.61" height="4.89"/><rect class="cls-18" x="1187.4" y="967.54" width="135.49" height="4.89"/><rect class="cls-18" x="1348.02" y="853" width="157.84" height="4.89"/><rect class="cls-18" x="1607.82" y="967.54" width="238.85" height="4.89"/><rect class="cls-18" x="516.25" y="978.01" width="92.89" height="4.19"/><polygon class="cls-18" points="1074.78 979.41 1039.86 979.41 1039.86 978.71 1024.5 978.71 1024.5 980.11 1023.8 980.11 1023.8 996.17 1024.5 996.17 1024.5 1040.87 1039.86 1040.87 1039.86 996.17 1074.78 996.17 1074.78 979.41"/><rect class="cls-18" x="1364.59" y="1003.5" width="32.32" height="5.24"/><rect class="cls-18" x="1424.65" y="1003.5" width="32.32" height="5.24"/><rect class="cls-18" x="1364.59" y="925.28" width="32.32" height="5.24"/><rect class="cls-18" x="1424.65" y="925.28" width="32.32" height="5.24"/><rect class="cls-18" x="1519.63" y="921.09" width="46.29" height="5.24"/><rect class="cls-18" x="1648.14" y="1009.09" width="51.88" height="5.24"/></g><g id="vegetacion"><path class="cls-19" d="M683.31,1040.17H643.2a3.44,3.44,0,0,1,3.45-3.45,3.85,3.85,0,0,1,1,.15,5.6,5.6,0,0,1,5.23-4.45,10.34,10.34,0,0,1,19.54.08,5.56,5.56,0,0,1,1-.1,5.62,5.62,0,0,1,5.5,4.47,3.85,3.85,0,0,1,1-.15A3.44,3.44,0,0,1,683.31,1040.17Z"/><path class="cls-19" d="M387.2,1040.17H347.08a3.45,3.45,0,0,1,3.45-3.45,3.86,3.86,0,0,1,1,.15,5.6,5.6,0,0,1,5.23-4.45,10.34,10.34,0,0,1,19.54.08,5.38,5.38,0,0,1,1-.1,5.6,5.6,0,0,1,5.49,4.47,3.86,3.86,0,0,1,1-.15A3.45,3.45,0,0,1,387.2,1040.17Z"/><path class="cls-19" d="M1172.19,1040.17h-40.12a3.44,3.44,0,0,1,3.45-3.45,3.93,3.93,0,0,1,1,.15,5.58,5.58,0,0,1,5.22-4.45,10.34,10.34,0,0,1,19.54.08,5.56,5.56,0,0,1,1-.1,5.62,5.62,0,0,1,5.5,4.47,3.85,3.85,0,0,1,1-.15A3.45,3.45,0,0,1,1172.19,1040.17Z"/><path class="cls-19" d="M1327.23,1040.17h-40.12a3.45,3.45,0,0,1,3.45-3.45,3.86,3.86,0,0,1,1,.15,5.6,5.6,0,0,1,5.22-4.45,10.34,10.34,0,0,1,19.55.08,5.38,5.38,0,0,1,1-.1,5.6,5.6,0,0,1,5.49,4.47,3.86,3.86,0,0,1,1-.15A3.45,3.45,0,0,1,1327.23,1040.17Z"/><path class="cls-19" d="M285.08,1040.17H220.13a5.59,5.59,0,0,1,5.59-5.59,5.86,5.86,0,0,1,1.58.25,9.07,9.07,0,0,1,8.46-7.21,16.74,16.74,0,0,1,31.64.13,8.64,8.64,0,0,1,1.62-.15,9.08,9.08,0,0,1,8.89,7.23,5.86,5.86,0,0,1,1.58-.25A5.59,5.59,0,0,1,285.08,1040.17Z"/><path class="cls-19" d="M530.21,1038.07a7.3,7.3,0,0,1-.29,2.1H488.31v-24.85a7.3,7.3,0,0,1,2.1-.29,7.62,7.62,0,0,1,3.18.69,12.56,12.56,0,0,1,21.2,8,7.69,7.69,0,0,1,5.63,7,7.32,7.32,0,0,1,2.11-.31A7.68,7.68,0,0,1,530.21,1038.07Z"/><path class="cls-19" d="M1565.22,1038.07a7.3,7.3,0,0,0,.3,2.1h41.61v-24.85a7.3,7.3,0,0,0-2.1-.29,7.62,7.62,0,0,0-3.18.69,12.57,12.57,0,0,0-21.21,8,7.7,7.7,0,0,0-5.63,7,7.26,7.26,0,0,0-2.1-.31A7.68,7.68,0,0,0,1565.22,1038.07Z"/><path class="cls-19" d="M35.76,1038.07a7.3,7.3,0,0,1-.3,2.1H-6.15v-24.85A7.3,7.3,0,0,1-4,1015a7.62,7.62,0,0,1,3.18.69,12.57,12.57,0,0,1,21.21,8,7.69,7.69,0,0,1,5.62,7,7.38,7.38,0,0,1,2.11-.31A7.68,7.68,0,0,1,35.76,1038.07Z"/><path class="cls-19" d="M1075.42,1023.45v16.72h30.47a4.15,4.15,0,0,0-3.94-2.8,4,4,0,0,0-1.42.27c0-.08,0-.18,0-.27a5.57,5.57,0,0,0-10-3.43,6.23,6.23,0,0,0-4.22-2.1,10.45,10.45,0,0,0-10.27-8.43A5.32,5.32,0,0,0,1075.42,1023.45Z"/><path class="cls-11" d="M1685.1,381.07a10.57,10.57,0,0,0-10.57-10.57h-7.07c0-.12,0-.23,0-.35a13,13,0,0,0-13-13,12.89,12.89,0,0,0-3.31.44A21.14,21.14,0,0,0,1632.51,341a33.48,33.48,0,0,0-65.8,8.71c0,.71,0,1.41.08,2.1a15.21,15.21,0,0,0-14.55,18.69h-13a10.57,10.57,0,0,0-10.57,10.57"/><path class="cls-11" d="M1056.86,266.13a8.15,8.15,0,0,0-7.93-8.35h-30c0-.09,0-.19,0-.28a10.05,10.05,0,0,0-9.78-10.3,9.23,9.23,0,0,0-2.48.35,16.17,16.17,0,0,0-14-13.08c-2.87-11.27-12.63-19.57-24.24-19.57-13.86,0-25.1,11.84-25.1,26.45,0,.56,0,1.11.05,1.66a11.07,11.07,0,0,0-7.87,3.52,12.43,12.43,0,0,0-3,11.25h-33a8.14,8.14,0,0,0-7.92,8.35"/><path class="cls-11" d="M198.45,390.07A10.57,10.57,0,0,1,209,379.5h7.07c0-.12,0-.23,0-.35a13,13,0,0,1,13-13,12.88,12.88,0,0,1,3.3.44A21.15,21.15,0,0,1,251.05,350a33.47,33.47,0,0,1,65.79,8.71c0,.71,0,1.41-.07,2.1a15.21,15.21,0,0,1,14.54,18.69h13a10.57,10.57,0,0,1,10.57,10.57"/><path class="cls-19" d="M810.83,1038.46a6.09,6.09,0,0,0,.24,1.71H845v-20.28a6.09,6.09,0,0,0-1.71-.24,6.26,6.26,0,0,0-2.6.57,10.25,10.25,0,0,0-17.3,6.5,6.28,6.28,0,0,0-4.59,5.72,6.11,6.11,0,0,0-1.72-.25A6.26,6.26,0,0,0,810.83,1038.46Z"/></g></g></svg>