<svg xmlns="http://www.w3.org/2000/svg" viewBox="0 0 76.97 104.33"><defs><style>.cls-1{fill:#e65556;}</style></defs><g id="Capa_2" data-name="Capa 2"><g id="vegetacion"><path class="cls-1" d="M38.5,104.28a5.54,5.54,0,0,1-4-1.75C27.1,95,2.69,68.36.16,42.71L.1,42.13A5.25,5.25,0,0,0,0,41.07a3,3,0,0,1,0-.8V38.6A38.55,38.55,0,0,1,68,13.6a4,4,0,0,1,.13,5L42.4,51.93c-.11.13-.22.26-.34.38a5.55,5.55,0,0,1-7.86,0l0,0L20.43,38.56a4,4,0,1,1,4.8-6.4,4.33,4.33,0,0,1,.8.8L37.88,44.81l21.8-28.35A30.64,30.64,0,0,0,7.86,38.6v2l.06.85v.44C10.06,63.53,31,87.38,38.38,95.15,45.81,87.35,66.7,63.4,68.94,42a9,9,0,0,1,.09-.92v-2.5a31,31,0,0,0-.77-6.85,4,4,0,0,1,7.44-2.93A3.85,3.85,0,0,1,76,30a38,38,0,0,1,1,8.62v3.14a8.77,8.77,0,0,1-.11,1.16C74.2,68.22,49.91,95,42.53,102.56a5.58,5.58,0,0,1-4,1.77Z"/></g></g></svg>