<svg xmlns="http://www.w3.org/2000/svg" viewBox="0 0 111.58 72.72"><defs><style>.cls-1{fill:#fff;stroke:#7899a8;stroke-miterlimit:10;stroke-width:1.5px;}.cls-2{fill:#e65556;}.cls-3{fill:#d1dce1;}</style></defs><g id="Capa_2" data-name="Capa 2"><g id="vegetacion"><rect class="cls-1" x="20.18" y="-18.68" width="71.22" height="110.08" rx="7.3" transform="translate(92.15 -19.43) rotate(90)"/><path class="cls-1" d="M1.46,12.74l47.45,20.7a17.36,17.36,0,0,0,13.46.16l48.46-19.77"/><path class="cls-2" d="M17.4,63.16a1.1,1.1,0,0,1-.79-.34c-1.46-1.48-6.27-6.74-6.77-11.8v-.11a.75.75,0,0,0,0-.21.85.85,0,0,1,0-.16v-.33a7.61,7.61,0,0,1,13.4-4.93.78.78,0,0,1,0,1l-5.06,6.57-.07.08a1.1,1.1,0,0,1-1.55,0h0l-2.71-2.71a.8.8,0,0,1-.16-1.11.78.78,0,0,1,1.1-.16,1.21,1.21,0,0,1,.16.16l2.34,2.34,4.29-5.59a6,6,0,0,0-10.21,4.36v.64c.42,4.28,4.55,9,6,10.51,1.47-1.54,5.59-6.26,6-10.47a1.1,1.1,0,0,1,0-.18v-.49a5.54,5.54,0,0,0-.16-1.35.8.8,0,0,1,.45-1,.79.79,0,0,1,1,.45.59.59,0,0,1,.05.23,7.39,7.39,0,0,1,.2,1.7v.62a1.64,1.64,0,0,1,0,.22c-.52,5-5.31,10.27-6.77,11.76a1.08,1.08,0,0,1-.79.35Z"/><rect class="cls-3" x="31.17" y="48.08" width="14.31" height="3.23"/><rect class="cls-3" x="31.17" y="53.34" width="24.97" height="3.23"/><rect class="cls-3" x="31.17" y="58.61" width="18.96" height="3.23"/></g></g></svg>