<svg xmlns="http://www.w3.org/2000/svg" viewBox="0 0 79.03 73.97"><defs><style>.cls-1,.cls-3{fill:#fff;}.cls-1,.cls-2,.cls-3,.cls-4{stroke:#7899a8;stroke-linejoin:round;}.cls-2{fill:none;}.cls-3{stroke-linecap:round;}.cls-4{fill:#d5ebed;}</style></defs><g id="Capa_2" data-name="Capa 2"><g id="vegetacion"><polyline class="cls-1" points="15.55 49.45 15.55 0.5 50.23 0.5 63.67 13.93 63.71 13.89 63.71 48.64"/><polyline class="cls-2" points="63.58 14.11 50.01 14.11 50.01 0.5"/><line class="cls-2" x1="24.05" y1="20.22" x2="55.22" y2="20.22"/><line class="cls-2" x1="24.05" y1="24.18" x2="55.22" y2="24.18"/><line class="cls-2" x1="24.05" y1="28.15" x2="55.22" y2="28.15"/><line class="cls-2" x1="24.05" y1="32.11" x2="55.22" y2="32.11"/><polyline class="cls-1" points="15.84 50.97 15.84 73.47 64 73.47 64 52"/><line class="cls-2" x1="24.36" y1="13.9" x2="43.31" y2="13.9"/><path class="cls-3" d="M32.77,36.61H20L9.92,34.06,6.7,49.38l12,3.22L32.92,66.87s2.64,3.16,6.23-.43c2,2,5.44-.44,5.44-2.41,2.33,2.33,5.64-.24,5.64-2.56,2.51,2.51,8.17-1.24,4.29-5.12l-14.9-14.9a23.52,23.52,0,0,1-5.27,1c-4.24,4.24-7.36.2-7.5-.2S35.45,33,39.48,33s11.16,3.47,15.07,3.47,18.13-2.92,18.13-2.92l2.41,16.65L60.45,52.74l-5.93,3.61"/><rect class="cls-4" x="63.5" y="31.95" width="12.9" height="19.84" transform="translate(-7.82 17.43) rotate(-13.46)"/><rect class="cls-4" x="2.63" y="31.95" width="12.9" height="19.84" transform="translate(8.17 84.7) rotate(-166.54)"/><line class="cls-3" x1="42.41" y1="53.71" x2="50.27" y2="61.57"/><line class="cls-3" x1="36.83" y1="56.13" x2="44.69" y2="63.99"/><line class="cls-3" x1="31.25" y1="58.55" x2="39.12" y2="66.41"/><path class="cls-2" d="M50.56,67.85l2.82-3.36a24.45,24.45,0,0,0,.77,2.38,2.78,2.78,0,0,0,1.53-2l.67.94c.07.1.14.21.26.24a.53.53,0,0,0,.39-.13l2-1.34"/><path class="cls-2" d="M22.64,67.19a30.94,30.94,0,0,1,2.25-3.85,10.67,10.67,0,0,1,.71,2.4,2.47,2.47,0,0,0,1.18-.8,8.69,8.69,0,0,0,.57,1.86,3.06,3.06,0,0,0,1.83-1,.53.53,0,0,0,.53.5,1.53,1.53,0,0,0,.77-.23"/></g></g></svg>