<svg xmlns="http://www.w3.org/2000/svg" viewBox="0 0 111.12 58.09"><defs><style>.cls-1{fill:#fff;}.cls-1,.cls-2,.cls-3,.cls-4{stroke:#7899a8;stroke-linejoin:round;}.cls-2{fill:#dbebe7;}.cls-3{fill:#f8dede;}.cls-4{fill:#f3be61;}</style></defs><g id="Capa_2" data-name="Capa 2"><g id="vegetacion"><path class="cls-1" d="M14.08.5H97a3.37,3.37,0,0,1,3.37,3.37v51a0,0,0,0,1,0,0H10.71a0,0,0,0,1,0,0v-51A3.37,3.37,0,0,1,14.08.5Z"/><path class="cls-1" d="M14.08.5H97a3.37,3.37,0,0,1,3.37,3.37v51a0,0,0,0,1,0,0H10.71a0,0,0,0,1,0,0v-51A3.37,3.37,0,0,1,14.08.5Z"/><rect class="cls-2" x="0.5" y="54.88" width="110.12" height="2.7" rx="1.05"/><rect class="cls-3" x="10.8" y="4.43" width="89.48" height="18.63"/><rect class="cls-4" x="20.5" y="13.29" width="14.29" height="14.29"/><rect class="cls-3" x="20.54" y="32.28" width="15.67" height="9.46"/><line class="cls-1" x1="20.36" y1="44.58" x2="30.39" y2="44.58"/><line class="cls-1" x1="20.36" y1="46.93" x2="34.01" y2="46.93"/><line class="cls-1" x1="20.36" y1="48.47" x2="30.84" y2="48.47"/><line class="cls-1" x1="20.36" y1="50" x2="32.74" y2="50"/><rect class="cls-3" x="39.1" y="32.28" width="15.67" height="9.46"/><line class="cls-1" x1="38.92" y1="44.58" x2="48.96" y2="44.58"/><line class="cls-1" x1="38.92" y1="46.93" x2="52.57" y2="46.93"/><line class="cls-1" x1="38.92" y1="48.47" x2="49.41" y2="48.47"/><line class="cls-1" x1="38.92" y1="50" x2="51.31" y2="50"/><rect class="cls-3" x="57.67" y="32.28" width="15.67" height="9.46"/><line class="cls-1" x1="57.49" y1="44.58" x2="67.52" y2="44.58"/><line class="cls-1" x1="57.49" y1="46.93" x2="71.14" y2="46.93"/><line class="cls-1" x1="57.49" y1="48.47" x2="67.98" y2="48.47"/><line class="cls-1" x1="57.49" y1="50" x2="69.87" y2="50"/><rect class="cls-3" x="76.23" y="32.28" width="15.67" height="9.46"/><line class="cls-1" x1="76.05" y1="44.58" x2="86.09" y2="44.58"/><line class="cls-1" x1="76.05" y1="46.93" x2="89.71" y2="46.93"/><line class="cls-1" x1="76.05" y1="48.47" x2="86.54" y2="48.47"/><line class="cls-1" x1="76.05" y1="50" x2="88.44" y2="50"/><circle class="cls-1" cx="27.64" cy="19.17" r="2.72"/><path class="cls-1" d="M26.76,23h1.76a3.77,3.77,0,0,1,3.77,3.77v.82a0,0,0,0,1,0,0H23a0,0,0,0,1,0,0v-.82A3.77,3.77,0,0,1,26.76,23Z"/></g></g></svg>