<svg xmlns="http://www.w3.org/2000/svg" viewBox="0 0 595.17 115.04"><defs><style>.cls-1{fill:#e95452;}.cls-2{fill:#253d48;}</style></defs><g id="Capa_2" data-name="Capa 2"><g id="Capa_1-2" data-name="Capa 1"><g id="Capa_2-2" data-name="Capa 2"><g id="Layer_1" data-name="Layer 1"><path class="cls-1" d="M38.5,104.28a5.54,5.54,0,0,1-4-1.75C27.1,95,2.69,68.36.16,42.71L.1,42.13A5.25,5.25,0,0,0,0,41.07a3,3,0,0,1,0-.8V38.6A38.55,38.55,0,0,1,68,13.6a4,4,0,0,1,.13,5L42.4,51.93c-.11.13-.22.26-.34.38a5.55,5.55,0,0,1-7.86,0l0,0L20.43,38.56a4,4,0,1,1,4.8-6.4,4.33,4.33,0,0,1,.8.8L37.88,44.81l21.8-28.35A30.64,30.64,0,0,0,7.86,38.6v2l.06.85v.44C10.06,63.53,31,87.38,38.38,95.15,45.81,87.35,66.7,63.4,68.94,42a9,9,0,0,1,.09-.92v-2.5a31,31,0,0,0-.77-6.85,4,4,0,0,1,7.44-2.93A3.85,3.85,0,0,1,76,30a38,38,0,0,1,1,8.62v3.14a8.77,8.77,0,0,1-.11,1.16C74.2,68.22,49.91,95,42.53,102.56a5.58,5.58,0,0,1-4,1.77Z"/><path class="cls-2" d="M412.44,95a20.79,20.79,0,0,1-18-9.47V111a4,4,0,0,1-4,4h0a4,4,0,0,1-4-4V49a4,4,0,0,1,4-4h0a4,4,0,0,1,4,4v4.44a20.89,20.89,0,0,1,18-9.37q10.77,0,17.7,7.17t6.93,18.15q0,11.16-6.93,18.39T412.44,95Zm16.25-25.62a17.5,17.5,0,0,0-4.75-12.67,16.31,16.31,0,0,0-12.27-5,16.61,16.61,0,0,0-12.36,5,17.36,17.36,0,0,0-4.88,12.66,17.82,17.82,0,0,0,4.88,12.86,16.4,16.4,0,0,0,12.36,5.08,16.11,16.11,0,0,0,12.27-5.08,18,18,0,0,0,4.75-12.86Z"/><path class="cls-2" d="M458,70.71V90.1a4,4,0,0,1-4,4h0a4,4,0,0,1-4-4V49a4,4,0,0,1,4-4h0a4,4,0,0,1,4,4v6.43q4.56-8.52,12.36-10.65a4.37,4.37,0,0,1,5.41,3,4.05,4.05,0,0,1,.17,1.15h0a4.34,4.34,0,0,1-4.09,4.27A14.25,14.25,0,0,0,463.18,57Q458,61.84,458,70.71Z"/><path class="cls-2" d="M506.35,95q-11.27,0-18.54-7.28t-7.28-18.34q0-11,7.28-18.15t18.54-7.17q11.07,0,18.19,7.17t7.13,18.15q0,11.16-7.13,18.39T506.35,95ZM523.3,69.42a17.53,17.53,0,0,0-4.79-12.66,16.29,16.29,0,0,0-12.26-5,16.72,16.72,0,0,0-12.46,5,17.31,17.31,0,0,0-4.85,12.65,17.79,17.79,0,0,0,4.89,12.86,16.46,16.46,0,0,0,12.46,5.08,16.07,16.07,0,0,0,12.26-5.08,18,18,0,0,0,4.75-12.86Z"/><path class="cls-2" d="M570.55,95a20.82,20.82,0,0,1-18-9.47V111a4,4,0,0,1-4,4h0a4,4,0,0,1-4-4V49a4,4,0,0,1,4-4h0a4,4,0,0,1,4,4v4.44a20.9,20.9,0,0,1,18-9.37q10.77,0,17.7,7.17t6.92,18.15q0,11.16-6.92,18.39T570.55,95ZM586.8,69.42A17.53,17.53,0,0,0,582,56.76a16.25,16.25,0,0,0-12.26-5,16.61,16.61,0,0,0-12.36,5,17.34,17.34,0,0,0-4.89,12.66,17.79,17.79,0,0,0,4.89,12.86,16.4,16.4,0,0,0,12.36,5.08A16,16,0,0,0,582,82.28a17.94,17.94,0,0,0,4.79-12.87Z"/><path class="cls-2" d="M114.14,89.93V23.8a4.46,4.46,0,0,1,4.46-4.46h15.2q12,0,19.4,7t7.44,18.56q0,11.67-7.49,18.65t-19.55,7h-11V90a4.24,4.24,0,0,1-4.24,4.24h0a4.24,4.24,0,0,1-4.22-4.26Zm19.8-62.8H122.62V62.74h11.32q8.28,0,13.17-4.83t4.89-13q0-8.08-4.94-12.93T133.94,27.13Z"/><path class="cls-2" d="M204.94,73.32V49a4,4,0,0,1,4-4h0a4,4,0,0,1,4,4V72.52q0,10.5-5.88,16.51t-15.87,6q-10,0-15.81-6t-5.84-16.51V49a4,4,0,0,1,4-4h0a4,4,0,0,1,4,4V73.32q0,6.9,3.7,10.48t9.87,3.59q6.28,0,10-3.59T204.94,73.32Z"/><path class="cls-2" d="M236.16,69.53v20.6a4,4,0,0,1-4,4h0a4,4,0,0,1-4-4V49a4,4,0,0,1,4-4h0a4,4,0,0,1,4,4v4.34a19.16,19.16,0,0,1,17.06-9.28q9,0,14,5.88t5,15.27V90.13a4,4,0,0,1-4,4h-.1a4,4,0,0,1-4-4V66.64Q264.12,52,251.35,52a13.51,13.51,0,0,0-10.88,5A19,19,0,0,0,236.16,69.53Z"/><path class="cls-2" d="M348.21,95q-11.26,0-18.56-7.25t-7.28-18.36q0-11,7.28-18.16t18.56-7.18q11.07,0,18.21,7.18t7.13,18.16q0,11.17-7.13,18.41T348.21,95Zm17-25.64a17.57,17.57,0,0,0-4.79-12.67,16.26,16.26,0,0,0-12.27-5,16.71,16.71,0,0,0-12.47,5,17.38,17.38,0,0,0-4.89,12.67,17.8,17.8,0,0,0,4.89,12.87,16.54,16.54,0,0,0,12.47,5.09,16.08,16.08,0,0,0,12.27-5.09,18,18,0,0,0,4.75-12.84Z"/><path class="cls-2" d="M303.71,95.47q-8.28,0-12.56-4.19t-4.29-13.76V35.67a3.74,3.74,0,0,1,3.72-3.74h.62a3.74,3.74,0,0,1,3.74,3.74h0v9.75h16.6a3.73,3.73,0,0,1,3.73,3.73h0a3.73,3.73,0,0,1-3.73,3.74h-16.6V78.12c0,3.26.86,5.66,2.59,7.23a9.82,9.82,0,0,0,6.88,2.34,19.25,19.25,0,0,0,9.64-2.43c1.82-1,1.82.92,1.82.92C315.87,90,313.66,95.47,303.71,95.47Z"/></g></g></g></g></svg>